%TF.GenerationSoftware,KiCad,Pcbnew,(6.0.7)*%
%TF.CreationDate,2022-08-15T11:05:21+01:00*%
%TF.ProjectId,nwX287,6e775832-3837-42e6-9b69-6361645f7063,1a*%
%TF.SameCoordinates,Original*%
%TF.FileFunction,Drillmap*%
%TF.FilePolarity,Positive*%
%FSLAX45Y45*%
G04 Gerber Fmt 4.5, Leading zero omitted, Abs format (unit mm)*
G04 Created by KiCad (PCBNEW (6.0.7)) date 2022-08-15 11:05:21*
%MOMM*%
%LPD*%
G01*
G04 APERTURE LIST*
%ADD10C,0.050000*%
%ADD11C,0.200000*%
G04 APERTURE END LIST*
D10*
X12547600Y-7791450D02*
X13360400Y-7791450D01*
X13360400Y-7791450D02*
G75*
G03*
X13563600Y-7791450I101600J-6350D01*
G01*
X12547600Y-10896600D02*
X12547600Y-7791450D01*
X14376400Y-10896600D02*
X12547600Y-10896600D01*
X14376400Y-7791450D02*
X14376400Y-10896600D01*
X13563600Y-7791450D02*
X14376400Y-7791450D01*
D11*
X12802719Y-11209576D02*
X12802719Y-11009576D01*
X12850338Y-11009576D01*
X12878909Y-11019100D01*
X12897957Y-11038148D01*
X12907481Y-11057195D01*
X12917005Y-11095290D01*
X12917005Y-11123862D01*
X12907481Y-11161957D01*
X12897957Y-11181005D01*
X12878909Y-11200052D01*
X12850338Y-11209576D01*
X12802719Y-11209576D01*
X13002719Y-11209576D02*
X13002719Y-11076243D01*
X13002719Y-11114338D02*
X13012243Y-11095290D01*
X13021767Y-11085767D01*
X13040814Y-11076243D01*
X13059862Y-11076243D01*
X13126528Y-11209576D02*
X13126528Y-11076243D01*
X13126528Y-11009576D02*
X13117005Y-11019100D01*
X13126528Y-11028624D01*
X13136052Y-11019100D01*
X13126528Y-11009576D01*
X13126528Y-11028624D01*
X13250338Y-11209576D02*
X13231290Y-11200052D01*
X13221767Y-11181005D01*
X13221767Y-11009576D01*
X13355100Y-11209576D02*
X13336052Y-11200052D01*
X13326528Y-11181005D01*
X13326528Y-11009576D01*
X13583671Y-11209576D02*
X13583671Y-11009576D01*
X13650338Y-11152433D01*
X13717005Y-11009576D01*
X13717005Y-11209576D01*
X13897957Y-11209576D02*
X13897957Y-11104814D01*
X13888433Y-11085767D01*
X13869386Y-11076243D01*
X13831290Y-11076243D01*
X13812243Y-11085767D01*
X13897957Y-11200052D02*
X13878909Y-11209576D01*
X13831290Y-11209576D01*
X13812243Y-11200052D01*
X13802719Y-11181005D01*
X13802719Y-11161957D01*
X13812243Y-11142910D01*
X13831290Y-11133386D01*
X13878909Y-11133386D01*
X13897957Y-11123862D01*
X13993195Y-11076243D02*
X13993195Y-11276243D01*
X13993195Y-11085767D02*
X14012243Y-11076243D01*
X14050338Y-11076243D01*
X14069386Y-11085767D01*
X14078909Y-11095290D01*
X14088433Y-11114338D01*
X14088433Y-11171481D01*
X14078909Y-11190528D01*
X14069386Y-11200052D01*
X14050338Y-11209576D01*
X14012243Y-11209576D01*
X13993195Y-11200052D01*
X14174148Y-11190528D02*
X14183671Y-11200052D01*
X14174148Y-11209576D01*
X14164624Y-11200052D01*
X14174148Y-11190528D01*
X14174148Y-11209576D01*
X14174148Y-11085767D02*
X14183671Y-11095290D01*
X14174148Y-11104814D01*
X14164624Y-11095290D01*
X14174148Y-11085767D01*
X14174148Y-11104814D01*
M02*
