G04 #@! TF.GenerationSoftware,KiCad,Pcbnew,(6.0.7)*
G04 #@! TF.CreationDate,2022-08-15T11:05:51+01:00*
G04 #@! TF.ProjectId,nwX287,6e775832-3837-42e6-9b69-6361645f7063,1a*
G04 #@! TF.SameCoordinates,Original*
G04 #@! TF.FileFunction,Legend,Top*
G04 #@! TF.FilePolarity,Positive*
%FSLAX46Y46*%
G04 Gerber Fmt 4.6, Leading zero omitted, Abs format (unit mm)*
G04 Created by KiCad (PCBNEW (6.0.7)) date 2022-08-15 11:05:51*
%MOMM*%
%LPD*%
G01*
G04 APERTURE LIST*
%ADD10C,0.150000*%
%ADD11C,0.200000*%
%ADD12C,0.100000*%
%ADD13C,0.120000*%
%ADD14C,1.200000*%
G04 APERTURE END LIST*
D10*
X133350000Y-77851000D02*
G75*
G03*
X135890000Y-77851000I1270000J0D01*
G01*
D11*
X137896571Y-79371857D02*
X137896571Y-80171857D01*
X137610857Y-78914714D02*
X137325142Y-79771857D01*
X138068000Y-79771857D01*
X131172000Y-78971857D02*
X131914857Y-78971857D01*
X131514857Y-79429000D01*
X131686285Y-79429000D01*
X131800571Y-79486142D01*
X131857714Y-79543285D01*
X131914857Y-79657571D01*
X131914857Y-79943285D01*
X131857714Y-80057571D01*
X131800571Y-80114714D01*
X131686285Y-80171857D01*
X131343428Y-80171857D01*
X131229142Y-80114714D01*
X131172000Y-80057571D01*
D12*
G36*
X140589000Y-80645000D02*
G01*
X138430000Y-80645000D01*
X138430000Y-78613000D01*
X140589000Y-78613000D01*
X140589000Y-80645000D01*
G37*
X140589000Y-80645000D02*
X138430000Y-80645000D01*
X138430000Y-78613000D01*
X140589000Y-78613000D01*
X140589000Y-80645000D01*
G36*
X130810000Y-80645000D02*
G01*
X128651000Y-80645000D01*
X128651000Y-78613000D01*
X130810000Y-78613000D01*
X130810000Y-80645000D01*
G37*
X130810000Y-80645000D02*
X128651000Y-80645000D01*
X128651000Y-78613000D01*
X130810000Y-78613000D01*
X130810000Y-80645000D01*
D11*
X136558619Y-108365857D02*
X136558619Y-107565857D01*
X136558619Y-107794428D02*
X136611000Y-107680142D01*
X136663380Y-107623000D01*
X136768142Y-107565857D01*
X136872904Y-107565857D01*
X137658619Y-108308714D02*
X137553857Y-108365857D01*
X137344333Y-108365857D01*
X137239571Y-108308714D01*
X137187190Y-108194428D01*
X137187190Y-107737285D01*
X137239571Y-107623000D01*
X137344333Y-107565857D01*
X137553857Y-107565857D01*
X137658619Y-107623000D01*
X137711000Y-107737285D01*
X137711000Y-107851571D01*
X137187190Y-107965857D01*
X138077666Y-107565857D02*
X138339571Y-108365857D01*
X138601476Y-107565857D01*
X139020523Y-108251571D02*
X139072904Y-108308714D01*
X139020523Y-108365857D01*
X138968142Y-108308714D01*
X139020523Y-108251571D01*
X139020523Y-108365857D01*
X140120523Y-108365857D02*
X139491952Y-108365857D01*
X139806238Y-108365857D02*
X139806238Y-107165857D01*
X139701476Y-107337285D01*
X139596714Y-107451571D01*
X139491952Y-107508714D01*
X141063380Y-108365857D02*
X141063380Y-107737285D01*
X141011000Y-107623000D01*
X140906238Y-107565857D01*
X140696714Y-107565857D01*
X140591952Y-107623000D01*
X141063380Y-108308714D02*
X140958619Y-108365857D01*
X140696714Y-108365857D01*
X140591952Y-108308714D01*
X140539571Y-108194428D01*
X140539571Y-108080142D01*
X140591952Y-107965857D01*
X140696714Y-107908714D01*
X140958619Y-107908714D01*
X141063380Y-107851571D01*
D10*
G04 #@! TO.C,BT1*
X136882285Y-89717571D02*
X137025142Y-89765190D01*
X137072761Y-89812809D01*
X137120380Y-89908047D01*
X137120380Y-90050904D01*
X137072761Y-90146142D01*
X137025142Y-90193761D01*
X136929904Y-90241380D01*
X136548952Y-90241380D01*
X136548952Y-89241380D01*
X136882285Y-89241380D01*
X136977523Y-89289000D01*
X137025142Y-89336619D01*
X137072761Y-89431857D01*
X137072761Y-89527095D01*
X137025142Y-89622333D01*
X136977523Y-89669952D01*
X136882285Y-89717571D01*
X136548952Y-89717571D01*
X137406095Y-89241380D02*
X137977523Y-89241380D01*
X137691809Y-90241380D02*
X137691809Y-89241380D01*
X138834666Y-90241380D02*
X138263238Y-90241380D01*
X138548952Y-90241380D02*
X138548952Y-89241380D01*
X138453714Y-89384238D01*
X138358476Y-89479476D01*
X138263238Y-89527095D01*
X132524761Y-98782142D02*
X132477142Y-98829761D01*
X132334285Y-98877380D01*
X132239047Y-98877380D01*
X132096190Y-98829761D01*
X132000952Y-98734523D01*
X131953333Y-98639285D01*
X131905714Y-98448809D01*
X131905714Y-98305952D01*
X131953333Y-98115476D01*
X132000952Y-98020238D01*
X132096190Y-97925000D01*
X132239047Y-97877380D01*
X132334285Y-97877380D01*
X132477142Y-97925000D01*
X132524761Y-97972619D01*
X133524761Y-98877380D02*
X133191428Y-98401190D01*
X132953333Y-98877380D02*
X132953333Y-97877380D01*
X133334285Y-97877380D01*
X133429523Y-97925000D01*
X133477142Y-97972619D01*
X133524761Y-98067857D01*
X133524761Y-98210714D01*
X133477142Y-98305952D01*
X133429523Y-98353571D01*
X133334285Y-98401190D01*
X132953333Y-98401190D01*
X134477142Y-98877380D02*
X133905714Y-98877380D01*
X134191428Y-98877380D02*
X134191428Y-97877380D01*
X134096190Y-98020238D01*
X134000952Y-98115476D01*
X133905714Y-98163095D01*
X134858095Y-97972619D02*
X134905714Y-97925000D01*
X135000952Y-97877380D01*
X135239047Y-97877380D01*
X135334285Y-97925000D01*
X135381904Y-97972619D01*
X135429523Y-98067857D01*
X135429523Y-98163095D01*
X135381904Y-98305952D01*
X134810476Y-98877380D01*
X135429523Y-98877380D01*
X135810476Y-97972619D02*
X135858095Y-97925000D01*
X135953333Y-97877380D01*
X136191428Y-97877380D01*
X136286666Y-97925000D01*
X136334285Y-97972619D01*
X136381904Y-98067857D01*
X136381904Y-98163095D01*
X136334285Y-98305952D01*
X135762857Y-98877380D01*
X136381904Y-98877380D01*
X137000952Y-97877380D02*
X137096190Y-97877380D01*
X137191428Y-97925000D01*
X137239047Y-97972619D01*
X137286666Y-98067857D01*
X137334285Y-98258333D01*
X137334285Y-98496428D01*
X137286666Y-98686904D01*
X137239047Y-98782142D01*
X137191428Y-98829761D01*
X137096190Y-98877380D01*
X137000952Y-98877380D01*
X136905714Y-98829761D01*
X136858095Y-98782142D01*
X136810476Y-98686904D01*
X136762857Y-98496428D01*
X136762857Y-98258333D01*
X136810476Y-98067857D01*
X136858095Y-97972619D01*
X136905714Y-97925000D01*
X137000952Y-97877380D01*
D13*
X129620000Y-90525000D02*
X129620000Y-92825000D01*
X139620000Y-90525000D02*
X129620000Y-90525000D01*
X139620000Y-92825000D02*
X139620000Y-90525000D01*
X142120667Y-98425000D02*
G75*
G03*
X142120667Y-98425000I-7500667J0D01*
G01*
G04 #@! TD*
D14*
G04 #@! TO.C,BT1*
X134620000Y-102025000D03*
X134620000Y-94525000D03*
G04 #@! TD*
M02*
