G04 #@! TF.GenerationSoftware,KiCad,Pcbnew,(6.0.7)*
G04 #@! TF.CreationDate,2022-08-15T11:05:51+01:00*
G04 #@! TF.ProjectId,nwX287,6e775832-3837-42e6-9b69-6361645f7063,1a*
G04 #@! TF.SameCoordinates,Original*
G04 #@! TF.FileFunction,Copper,L1,Top*
G04 #@! TF.FilePolarity,Positive*
%FSLAX46Y46*%
G04 Gerber Fmt 4.6, Leading zero omitted, Abs format (unit mm)*
G04 Created by KiCad (PCBNEW (6.0.7)) date 2022-08-15 11:05:51*
%MOMM*%
%LPD*%
G01*
G04 APERTURE LIST*
G04 #@! TA.AperFunction,SMDPad,CuDef*
%ADD10R,2.300000X4.000000*%
G04 #@! TD*
G04 #@! TA.AperFunction,ComponentPad*
%ADD11C,1.200000*%
G04 #@! TD*
G04 #@! TA.AperFunction,ComponentPad*
%ADD12O,1.600000X1.600000*%
G04 #@! TD*
G04 #@! TA.AperFunction,ComponentPad*
%ADD13R,1.600000X1.600000*%
G04 #@! TD*
G04 #@! TA.AperFunction,ViaPad*
%ADD14C,0.500000*%
G04 #@! TD*
G04 #@! TA.AperFunction,Conductor*
%ADD15C,0.200000*%
G04 #@! TD*
G04 #@! TA.AperFunction,Conductor*
%ADD16C,0.350000*%
G04 #@! TD*
G04 APERTURE END LIST*
D10*
G04 #@! TO.P,BT1,1*
G04 #@! TO.N,BC*
X134620000Y-90425000D03*
G04 #@! TO.P,BT1,2*
G04 #@! TO.N,GND*
X134620000Y-106425000D03*
D11*
G04 #@! TO.P,BT1,*
G04 #@! TO.N,*
X134620000Y-102025000D03*
X134620000Y-94525000D03*
G04 #@! TD*
D12*
G04 #@! TO.P,U2,24*
G04 #@! TO.N,VCC*
X142240000Y-79459001D03*
G04 #@! TO.P,U2,12*
G04 #@! TO.N,GND*
X127000000Y-107399001D03*
G04 #@! TO.P,U2,23*
G04 #@! TO.N,SQW*
X142240000Y-81999001D03*
G04 #@! TO.P,U2,11*
G04 #@! TO.N,AD7*
X127000000Y-104859001D03*
G04 #@! TO.P,U2,22*
G04 #@! TO.N,CEO*
X142240000Y-84539001D03*
G04 #@! TO.P,U2,10*
G04 #@! TO.N,AD6*
X127000000Y-102319001D03*
G04 #@! TO.P,U2,21*
G04 #@! TO.N,CEI*
X142240000Y-87079001D03*
G04 #@! TO.P,U2,9*
G04 #@! TO.N,AD5*
X127000000Y-99779001D03*
G04 #@! TO.P,U2,20*
G04 #@! TO.N,N/C*
X142240000Y-89619001D03*
G04 #@! TO.P,U2,8*
G04 #@! TO.N,AD4*
X127000000Y-97239001D03*
G04 #@! TO.P,U2,19*
G04 #@! TO.N,INT*
X142240000Y-92159001D03*
G04 #@! TO.P,U2,7*
G04 #@! TO.N,AD3*
X127000000Y-94699001D03*
G04 #@! TO.P,U2,18*
G04 #@! TO.N,RST*
X142240000Y-94699001D03*
G04 #@! TO.P,U2,6*
G04 #@! TO.N,AD2*
X127000000Y-92159001D03*
G04 #@! TO.P,U2,17*
G04 #@! TO.N,DS*
X142240000Y-97239001D03*
G04 #@! TO.P,U2,5*
G04 #@! TO.N,AD1*
X127000000Y-89619001D03*
G04 #@! TO.P,U2,16*
G04 #@! TO.N,GND*
X142240000Y-99779001D03*
G04 #@! TO.P,U2,4*
G04 #@! TO.N,AD0*
X127000000Y-87079001D03*
G04 #@! TO.P,U2,15*
G04 #@! TO.N,RW*
X142240000Y-102319001D03*
G04 #@! TO.P,U2,3*
G04 #@! TO.N,N/C*
X127000000Y-84539001D03*
G04 #@! TO.P,U2,14*
G04 #@! TO.N,AS*
X142240000Y-104859001D03*
G04 #@! TO.P,U2,2*
G04 #@! TO.N,N/C*
X127000000Y-81999001D03*
G04 #@! TO.P,U2,13*
G04 #@! TO.N,CS*
X142240000Y-107399001D03*
D13*
G04 #@! TO.P,U2,1*
G04 #@! TO.N,VOUT*
X127000000Y-79459001D03*
G04 #@! TD*
D14*
G04 #@! TO.N,GND*
X128270000Y-81280000D03*
X140970000Y-81280000D03*
X140462000Y-87376000D03*
G04 #@! TO.N,AD7*
X132334000Y-105283000D03*
G04 #@! TO.N,AD6*
X132334000Y-104013000D03*
G04 #@! TO.N,AD5*
X132334000Y-102743000D03*
G04 #@! TO.N,AD4*
X132334000Y-101473000D03*
G04 #@! TO.N,INT*
X137414000Y-98298000D03*
G04 #@! TO.N,AD3*
X132334000Y-100203000D03*
G04 #@! TO.N,RST*
X137414000Y-99568000D03*
G04 #@! TO.N,AD2*
X132334000Y-98933000D03*
G04 #@! TO.N,DS*
X137414000Y-100838000D03*
G04 #@! TO.N,AD1*
X132334000Y-97665710D03*
G04 #@! TO.N,AD0*
X132334000Y-96393000D03*
G04 #@! TO.N,RW*
X137414000Y-103378000D03*
G04 #@! TO.N,AS*
X137414000Y-104648000D03*
G04 #@! TO.N,BC*
X133096004Y-97040700D03*
G04 #@! TO.N,CEI*
X137541000Y-95758000D03*
G04 #@! TO.N,VOUT*
X132842000Y-87630004D03*
X129286000Y-87630000D03*
G04 #@! TD*
D15*
G04 #@! TO.N,AD7*
X127550999Y-105283000D02*
X127000000Y-104732001D01*
X132334000Y-105283000D02*
X127550999Y-105283000D01*
G04 #@! TO.N,AD6*
X128820999Y-104013000D02*
X127000000Y-102192001D01*
X132334000Y-104013000D02*
X128820999Y-104013000D01*
G04 #@! TO.N,AD5*
X130090999Y-102743000D02*
X127000000Y-99652001D01*
X132334000Y-102743000D02*
X130090999Y-102743000D01*
G04 #@! TO.N,AD4*
X131360999Y-101473000D02*
X127000000Y-97112001D01*
X132334000Y-101473000D02*
X131360999Y-101473000D01*
G04 #@! TO.N,INT*
X140716000Y-93556001D02*
X142240000Y-92032001D01*
X140716000Y-94996000D02*
X140716000Y-93556001D01*
X137414000Y-98298000D02*
X140716000Y-94996000D01*
G04 #@! TO.N,AD3*
X128016000Y-95885000D02*
X132334000Y-100203000D01*
X127000000Y-94869000D02*
X128016000Y-95885000D01*
X127000000Y-94572001D02*
X127000000Y-94869000D01*
G04 #@! TO.N,RST*
X142240000Y-94742000D02*
X142240000Y-94572001D01*
X137414000Y-99568000D02*
X142240000Y-94742000D01*
G04 #@! TO.N,AD2*
X128460500Y-93492501D02*
X127000000Y-92032001D01*
X128460500Y-95059500D02*
X128460500Y-93492501D01*
X132334000Y-98933000D02*
X128460500Y-95059500D01*
G04 #@! TO.N,DS*
X138514001Y-100838000D02*
X137414000Y-100838000D01*
X142240000Y-97112001D02*
X138514001Y-100838000D01*
G04 #@! TO.N,AD1*
X127000000Y-89492001D02*
X129476500Y-91968501D01*
X129476500Y-94808210D02*
X132334000Y-97665710D01*
X129476500Y-91968501D02*
X129476500Y-94808210D01*
G04 #@! TO.N,AD0*
X130429000Y-94488000D02*
X132334000Y-96393000D01*
X130429000Y-90508001D02*
X130429000Y-94488000D01*
X127000000Y-87079001D02*
X130429000Y-90508001D01*
G04 #@! TO.N,RW*
X141054001Y-103378000D02*
X142240000Y-102192001D01*
X137414000Y-103378000D02*
X141054001Y-103378000D01*
G04 #@! TO.N,AS*
X142155999Y-104648000D02*
X142240000Y-104732001D01*
X137414000Y-104648000D02*
X142155999Y-104648000D01*
D16*
G04 #@! TO.N,BC*
X133096004Y-96687147D02*
X133096004Y-97040700D01*
X133096004Y-94360996D02*
X133096004Y-96687147D01*
X134620000Y-92837000D02*
X133096004Y-94360996D01*
X134620000Y-90426000D02*
X134620000Y-92837000D01*
D15*
G04 #@! TO.N,CEI*
X142240000Y-87079001D02*
X140716000Y-88603001D01*
X140716000Y-88603001D02*
X140716000Y-92583000D01*
X140716000Y-92583000D02*
X137541000Y-95758000D01*
G04 #@! TO.N,VOUT*
X129286004Y-87630004D02*
X129286000Y-87630000D01*
X132842000Y-87630004D02*
X129286004Y-87630004D01*
G04 #@! TD*
G04 #@! TA.AperFunction,Conductor*
G04 #@! TO.N,GND*
G36*
X133337922Y-78252002D02*
G01*
X133384415Y-78305658D01*
X133390843Y-78323003D01*
X133392102Y-78327357D01*
X133393153Y-78332667D01*
X133395097Y-78337719D01*
X133395099Y-78337725D01*
X133469195Y-78530258D01*
X133471912Y-78537317D01*
X133474694Y-78541965D01*
X133568127Y-78698085D01*
X133584520Y-78725477D01*
X133588061Y-78729587D01*
X133588062Y-78729588D01*
X133673171Y-78828364D01*
X133727657Y-78891600D01*
X133731851Y-78895045D01*
X133892910Y-79027344D01*
X133892913Y-79027346D01*
X133897102Y-79030787D01*
X134087861Y-79138935D01*
X134092960Y-79140761D01*
X134092965Y-79140763D01*
X134249291Y-79196736D01*
X134294309Y-79212855D01*
X134299648Y-79213782D01*
X134505024Y-79249442D01*
X134505028Y-79249442D01*
X134510359Y-79250368D01*
X134729641Y-79250368D01*
X134734972Y-79249442D01*
X134734976Y-79249442D01*
X134940352Y-79213782D01*
X134945691Y-79212855D01*
X134990709Y-79196736D01*
X135147035Y-79140763D01*
X135147040Y-79140761D01*
X135152139Y-79138935D01*
X135342898Y-79030787D01*
X135347087Y-79027346D01*
X135347090Y-79027344D01*
X135508149Y-78895045D01*
X135512343Y-78891600D01*
X135566829Y-78828364D01*
X135651938Y-78729588D01*
X135651939Y-78729587D01*
X135655480Y-78725477D01*
X135671874Y-78698085D01*
X135765306Y-78541965D01*
X135768088Y-78537317D01*
X135770805Y-78530258D01*
X135844901Y-78337725D01*
X135844903Y-78337719D01*
X135846847Y-78332667D01*
X135847898Y-78327357D01*
X135849157Y-78323003D01*
X135887292Y-78263119D01*
X135951750Y-78233358D01*
X135970199Y-78232000D01*
X141801753Y-78232000D01*
X141869874Y-78252002D01*
X141916367Y-78305658D01*
X141926471Y-78375932D01*
X141896977Y-78440512D01*
X141848958Y-78474821D01*
X141843066Y-78476555D01*
X141837606Y-78479409D01*
X141837607Y-78479409D01*
X141665261Y-78569509D01*
X141665257Y-78569512D01*
X141659801Y-78572364D01*
X141498635Y-78701944D01*
X141365708Y-78860361D01*
X141266082Y-79041579D01*
X141203553Y-79238697D01*
X141202867Y-79244814D01*
X141202866Y-79244818D01*
X141201927Y-79253190D01*
X141180501Y-79444207D01*
X141197806Y-79650279D01*
X141254807Y-79849067D01*
X141257625Y-79854549D01*
X141257626Y-79854553D01*
X141346514Y-80027510D01*
X141346517Y-80027514D01*
X141349334Y-80032996D01*
X141477786Y-80195062D01*
X141635271Y-80329092D01*
X141815789Y-80429981D01*
X142012466Y-80493885D01*
X142217809Y-80518371D01*
X142223944Y-80517899D01*
X142223946Y-80517899D01*
X142417856Y-80502978D01*
X142417860Y-80502977D01*
X142423998Y-80502505D01*
X142623178Y-80446893D01*
X142628682Y-80444113D01*
X142628684Y-80444112D01*
X142802262Y-80356432D01*
X142802264Y-80356431D01*
X142807763Y-80353653D01*
X142970722Y-80226335D01*
X142974748Y-80221671D01*
X142974751Y-80221668D01*
X143098119Y-80078744D01*
X143157772Y-80040247D01*
X143228768Y-80040111D01*
X143288567Y-80078381D01*
X143318183Y-80142906D01*
X143319500Y-80161075D01*
X143319500Y-81300243D01*
X143299498Y-81368364D01*
X143245842Y-81414857D01*
X143175568Y-81424961D01*
X143110988Y-81395467D01*
X143095857Y-81379878D01*
X142995762Y-81257149D01*
X142995757Y-81257144D01*
X142991863Y-81252369D01*
X142984966Y-81246663D01*
X142837271Y-81124479D01*
X142837266Y-81124476D01*
X142832522Y-81120551D01*
X142827103Y-81117621D01*
X142827100Y-81117619D01*
X142656032Y-81025123D01*
X142656027Y-81025121D01*
X142650612Y-81022193D01*
X142453063Y-80961041D01*
X142446938Y-80960397D01*
X142446937Y-80960397D01*
X142253526Y-80940069D01*
X142253524Y-80940069D01*
X142247397Y-80939425D01*
X142121229Y-80950907D01*
X142047591Y-80957608D01*
X142047590Y-80957608D01*
X142041450Y-80958167D01*
X141843066Y-81016555D01*
X141837601Y-81019412D01*
X141665261Y-81109509D01*
X141665257Y-81109512D01*
X141659801Y-81112364D01*
X141498635Y-81241944D01*
X141365708Y-81400361D01*
X141266082Y-81581579D01*
X141203553Y-81778697D01*
X141180501Y-81984207D01*
X141197806Y-82190279D01*
X141254807Y-82389067D01*
X141257625Y-82394549D01*
X141257626Y-82394553D01*
X141346514Y-82567510D01*
X141346517Y-82567514D01*
X141349334Y-82572996D01*
X141477786Y-82735062D01*
X141635271Y-82869092D01*
X141815789Y-82969981D01*
X142012466Y-83033885D01*
X142217809Y-83058371D01*
X142223944Y-83057899D01*
X142223946Y-83057899D01*
X142417856Y-83042978D01*
X142417860Y-83042977D01*
X142423998Y-83042505D01*
X142623178Y-82986893D01*
X142628682Y-82984113D01*
X142628684Y-82984112D01*
X142802262Y-82896432D01*
X142802264Y-82896431D01*
X142807763Y-82893653D01*
X142970722Y-82766335D01*
X142974748Y-82761671D01*
X142974751Y-82761668D01*
X143098119Y-82618744D01*
X143157772Y-82580247D01*
X143228768Y-82580111D01*
X143288567Y-82618381D01*
X143318183Y-82682906D01*
X143319500Y-82701075D01*
X143319500Y-83840243D01*
X143299498Y-83908364D01*
X143245842Y-83954857D01*
X143175568Y-83964961D01*
X143110988Y-83935467D01*
X143095857Y-83919878D01*
X142995762Y-83797149D01*
X142995757Y-83797144D01*
X142991863Y-83792369D01*
X142984966Y-83786663D01*
X142837271Y-83664479D01*
X142837266Y-83664476D01*
X142832522Y-83660551D01*
X142827103Y-83657621D01*
X142827100Y-83657619D01*
X142656032Y-83565123D01*
X142656027Y-83565121D01*
X142650612Y-83562193D01*
X142453063Y-83501041D01*
X142446938Y-83500397D01*
X142446937Y-83500397D01*
X142253526Y-83480069D01*
X142253524Y-83480069D01*
X142247397Y-83479425D01*
X142121229Y-83490907D01*
X142047591Y-83497608D01*
X142047590Y-83497608D01*
X142041450Y-83498167D01*
X141843066Y-83556555D01*
X141837601Y-83559412D01*
X141665261Y-83649509D01*
X141665257Y-83649512D01*
X141659801Y-83652364D01*
X141498635Y-83781944D01*
X141365708Y-83940361D01*
X141266082Y-84121579D01*
X141203553Y-84318697D01*
X141180501Y-84524207D01*
X141197806Y-84730279D01*
X141254807Y-84929067D01*
X141257625Y-84934549D01*
X141257626Y-84934553D01*
X141346514Y-85107510D01*
X141346517Y-85107514D01*
X141349334Y-85112996D01*
X141477786Y-85275062D01*
X141635271Y-85409092D01*
X141815789Y-85509981D01*
X142012466Y-85573885D01*
X142217809Y-85598371D01*
X142223944Y-85597899D01*
X142223946Y-85597899D01*
X142417856Y-85582978D01*
X142417860Y-85582977D01*
X142423998Y-85582505D01*
X142623178Y-85526893D01*
X142628682Y-85524113D01*
X142628684Y-85524112D01*
X142802262Y-85436432D01*
X142802264Y-85436431D01*
X142807763Y-85433653D01*
X142970722Y-85306335D01*
X142974748Y-85301671D01*
X142974751Y-85301668D01*
X143098119Y-85158744D01*
X143157772Y-85120247D01*
X143228768Y-85120111D01*
X143288567Y-85158381D01*
X143318183Y-85222906D01*
X143319500Y-85241075D01*
X143319500Y-86380243D01*
X143299498Y-86448364D01*
X143245842Y-86494857D01*
X143175568Y-86504961D01*
X143110988Y-86475467D01*
X143095857Y-86459878D01*
X142995762Y-86337149D01*
X142995757Y-86337144D01*
X142991863Y-86332369D01*
X142984966Y-86326663D01*
X142837271Y-86204479D01*
X142837266Y-86204476D01*
X142832522Y-86200551D01*
X142827103Y-86197621D01*
X142827100Y-86197619D01*
X142656032Y-86105123D01*
X142656027Y-86105121D01*
X142650612Y-86102193D01*
X142453063Y-86041041D01*
X142446938Y-86040397D01*
X142446937Y-86040397D01*
X142253526Y-86020069D01*
X142253524Y-86020069D01*
X142247397Y-86019425D01*
X142121229Y-86030907D01*
X142047591Y-86037608D01*
X142047590Y-86037608D01*
X142041450Y-86038167D01*
X141843066Y-86096555D01*
X141837601Y-86099412D01*
X141665261Y-86189509D01*
X141665257Y-86189512D01*
X141659801Y-86192364D01*
X141498635Y-86321944D01*
X141365708Y-86480361D01*
X141266082Y-86661579D01*
X141203553Y-86858697D01*
X141180501Y-87064207D01*
X141185609Y-87125032D01*
X141196332Y-87252722D01*
X141197806Y-87270279D01*
X141199505Y-87276204D01*
X141254807Y-87469067D01*
X141252401Y-87469757D01*
X141257886Y-87529523D01*
X141223347Y-87594316D01*
X140501580Y-88316083D01*
X140486098Y-88328588D01*
X140482871Y-88331524D01*
X140474118Y-88337176D01*
X140454991Y-88361439D01*
X140451441Y-88365434D01*
X140451540Y-88365518D01*
X140448182Y-88369481D01*
X140444506Y-88373157D01*
X140441483Y-88377386D01*
X140441483Y-88377387D01*
X140434146Y-88387653D01*
X140430585Y-88392396D01*
X140407503Y-88421676D01*
X140407501Y-88421680D01*
X140401054Y-88429858D01*
X140398221Y-88437926D01*
X140393247Y-88444886D01*
X140390263Y-88454864D01*
X140379580Y-88490587D01*
X140377744Y-88496236D01*
X140361950Y-88541209D01*
X140361500Y-88546405D01*
X140361500Y-88549110D01*
X140361403Y-88551366D01*
X140361260Y-88551842D01*
X140361214Y-88551840D01*
X140361201Y-88552039D01*
X140359432Y-88557956D01*
X140360314Y-88580397D01*
X140361403Y-88608125D01*
X140361500Y-88613071D01*
X140361500Y-92383971D01*
X140341498Y-92452092D01*
X140324595Y-92473066D01*
X137581417Y-95216245D01*
X137519105Y-95250271D01*
X137491555Y-95253148D01*
X137483533Y-95253100D01*
X137471827Y-95253028D01*
X137463195Y-95255495D01*
X137341509Y-95290272D01*
X137341505Y-95290274D01*
X137332879Y-95292739D01*
X137325292Y-95297526D01*
X137325290Y-95297527D01*
X137240489Y-95351033D01*
X137210661Y-95369853D01*
X137204718Y-95376582D01*
X137204717Y-95376583D01*
X137149542Y-95439057D01*
X137114999Y-95478170D01*
X137053583Y-95608982D01*
X137052203Y-95617846D01*
X137052202Y-95617849D01*
X137034022Y-95734614D01*
X137031350Y-95751773D01*
X137032514Y-95760675D01*
X137032514Y-95760678D01*
X137035739Y-95785338D01*
X137050088Y-95895065D01*
X137108289Y-96027339D01*
X137114063Y-96034208D01*
X137165706Y-96095644D01*
X137201276Y-96137960D01*
X137208747Y-96142933D01*
X137208748Y-96142934D01*
X137314101Y-96213063D01*
X137314103Y-96213064D01*
X137321574Y-96218037D01*
X137330138Y-96220713D01*
X137330141Y-96220714D01*
X137390542Y-96239584D01*
X137459510Y-96261132D01*
X137603998Y-96263780D01*
X137623530Y-96258455D01*
X137734763Y-96228130D01*
X137734765Y-96228129D01*
X137743422Y-96225769D01*
X137866572Y-96150154D01*
X137963551Y-96043014D01*
X138026560Y-95912962D01*
X138048032Y-95785338D01*
X138083191Y-95717148D01*
X140146405Y-93653934D01*
X140208717Y-93619908D01*
X140279532Y-93624973D01*
X140336368Y-93667520D01*
X140361179Y-93734040D01*
X140361500Y-93743029D01*
X140361500Y-94796971D01*
X140341498Y-94865092D01*
X140324595Y-94886066D01*
X137454417Y-97756245D01*
X137392105Y-97790271D01*
X137364555Y-97793148D01*
X137356533Y-97793100D01*
X137344827Y-97793028D01*
X137336195Y-97795495D01*
X137214509Y-97830272D01*
X137214505Y-97830274D01*
X137205879Y-97832739D01*
X137198292Y-97837526D01*
X137198290Y-97837527D01*
X137091254Y-97905062D01*
X137083661Y-97909853D01*
X137077718Y-97916582D01*
X137077717Y-97916583D01*
X137022542Y-97979057D01*
X136987999Y-98018170D01*
X136926583Y-98148982D01*
X136925203Y-98157846D01*
X136925202Y-98157849D01*
X136907022Y-98274614D01*
X136904350Y-98291773D01*
X136905514Y-98300675D01*
X136905514Y-98300678D01*
X136908556Y-98323940D01*
X136923088Y-98435065D01*
X136981289Y-98567339D01*
X137074276Y-98677960D01*
X137081747Y-98682933D01*
X137081748Y-98682934D01*
X137187101Y-98753063D01*
X137187103Y-98753064D01*
X137194574Y-98758037D01*
X137203138Y-98760713D01*
X137203141Y-98760714D01*
X137255542Y-98777085D01*
X137332510Y-98801132D01*
X137341480Y-98801296D01*
X137341484Y-98801297D01*
X137376858Y-98801945D01*
X137444600Y-98823192D01*
X137490102Y-98877691D01*
X137498916Y-98948139D01*
X137463643Y-99017019D01*
X137454417Y-99026245D01*
X137392105Y-99060271D01*
X137364555Y-99063148D01*
X137356533Y-99063100D01*
X137344827Y-99063028D01*
X137336195Y-99065495D01*
X137214509Y-99100272D01*
X137214505Y-99100274D01*
X137205879Y-99102739D01*
X137198292Y-99107526D01*
X137198290Y-99107527D01*
X137110769Y-99162749D01*
X137083661Y-99179853D01*
X137077718Y-99186582D01*
X137077717Y-99186583D01*
X137072380Y-99192626D01*
X136987999Y-99288170D01*
X136926583Y-99418982D01*
X136925203Y-99427846D01*
X136925202Y-99427849D01*
X136910076Y-99525001D01*
X136904350Y-99561773D01*
X136905514Y-99570675D01*
X136905514Y-99570678D01*
X136916018Y-99651001D01*
X136923088Y-99705065D01*
X136981289Y-99837339D01*
X137074276Y-99947960D01*
X137081747Y-99952933D01*
X137081748Y-99952934D01*
X137187101Y-100023063D01*
X137187103Y-100023064D01*
X137194574Y-100028037D01*
X137203138Y-100030713D01*
X137203141Y-100030714D01*
X137250542Y-100045523D01*
X137332510Y-100071132D01*
X137476998Y-100073780D01*
X137527734Y-100059948D01*
X137607763Y-100038130D01*
X137607765Y-100038129D01*
X137616422Y-100035769D01*
X137739572Y-99960154D01*
X137836551Y-99853014D01*
X137899560Y-99722962D01*
X137921032Y-99595338D01*
X137956191Y-99527148D01*
X141759356Y-95723983D01*
X141821668Y-95689957D01*
X141887387Y-95693245D01*
X141960747Y-95717081D01*
X142012466Y-95733885D01*
X142217809Y-95758371D01*
X142223944Y-95757899D01*
X142223946Y-95757899D01*
X142417856Y-95742978D01*
X142417860Y-95742977D01*
X142423998Y-95742505D01*
X142623178Y-95686893D01*
X142628682Y-95684113D01*
X142628684Y-95684112D01*
X142802262Y-95596432D01*
X142802264Y-95596431D01*
X142807763Y-95593653D01*
X142970722Y-95466335D01*
X142974748Y-95461671D01*
X142974751Y-95461668D01*
X143095260Y-95322056D01*
X143098119Y-95318744D01*
X143157772Y-95280247D01*
X143228768Y-95280111D01*
X143288567Y-95318381D01*
X143318183Y-95382906D01*
X143319500Y-95401075D01*
X143319500Y-96540243D01*
X143299498Y-96608364D01*
X143245842Y-96654857D01*
X143175568Y-96664961D01*
X143110988Y-96635467D01*
X143095857Y-96619878D01*
X142995762Y-96497149D01*
X142995757Y-96497144D01*
X142991863Y-96492369D01*
X142984966Y-96486663D01*
X142837271Y-96364479D01*
X142837266Y-96364476D01*
X142832522Y-96360551D01*
X142827103Y-96357621D01*
X142827100Y-96357619D01*
X142656032Y-96265123D01*
X142656027Y-96265121D01*
X142650612Y-96262193D01*
X142453063Y-96201041D01*
X142446938Y-96200397D01*
X142446937Y-96200397D01*
X142253526Y-96180069D01*
X142253524Y-96180069D01*
X142247397Y-96179425D01*
X142121229Y-96190907D01*
X142047591Y-96197608D01*
X142047590Y-96197608D01*
X142041450Y-96198167D01*
X141843066Y-96256555D01*
X141837601Y-96259412D01*
X141665261Y-96349509D01*
X141665257Y-96349512D01*
X141659801Y-96352364D01*
X141498635Y-96481944D01*
X141365708Y-96640361D01*
X141266082Y-96821579D01*
X141203553Y-97018697D01*
X141202867Y-97024814D01*
X141202866Y-97024818D01*
X141200233Y-97048293D01*
X141180501Y-97224207D01*
X141197806Y-97430279D01*
X141226949Y-97531913D01*
X141226498Y-97602907D01*
X141194925Y-97655737D01*
X138404068Y-100446595D01*
X138341756Y-100480621D01*
X138314973Y-100483500D01*
X137828265Y-100483500D01*
X137760144Y-100463498D01*
X137752112Y-100457465D01*
X137749056Y-100453918D01*
X137663256Y-100398305D01*
X137635324Y-100380200D01*
X137635322Y-100380199D01*
X137627790Y-100375317D01*
X137610921Y-100370272D01*
X137497938Y-100336482D01*
X137497936Y-100336482D01*
X137489337Y-100333910D01*
X137480363Y-100333855D01*
X137480361Y-100333855D01*
X137417082Y-100333469D01*
X137344827Y-100333028D01*
X137336196Y-100335495D01*
X137336194Y-100335495D01*
X137214509Y-100370272D01*
X137214505Y-100370274D01*
X137205879Y-100372739D01*
X137198292Y-100377526D01*
X137198290Y-100377527D01*
X137099264Y-100440008D01*
X137083661Y-100449853D01*
X137077718Y-100456582D01*
X137077717Y-100456583D01*
X137022542Y-100519057D01*
X136987999Y-100558170D01*
X136984185Y-100566293D01*
X136984184Y-100566295D01*
X136976360Y-100582960D01*
X136926583Y-100688982D01*
X136925203Y-100697846D01*
X136925202Y-100697849D01*
X136907022Y-100814614D01*
X136904350Y-100831773D01*
X136905514Y-100840675D01*
X136905514Y-100840678D01*
X136914963Y-100912932D01*
X136923088Y-100975065D01*
X136981289Y-101107339D01*
X136987063Y-101114208D01*
X137053344Y-101193058D01*
X137074276Y-101217960D01*
X137081747Y-101222933D01*
X137081748Y-101222934D01*
X137187101Y-101293063D01*
X137187103Y-101293064D01*
X137194574Y-101298037D01*
X137203138Y-101300713D01*
X137203141Y-101300714D01*
X137263542Y-101319585D01*
X137332510Y-101341132D01*
X137476998Y-101343780D01*
X137496530Y-101338455D01*
X137607763Y-101308130D01*
X137607765Y-101308129D01*
X137616422Y-101305769D01*
X137739572Y-101230154D01*
X137745595Y-101223500D01*
X137747938Y-101221555D01*
X137813127Y-101193432D01*
X137828422Y-101192500D01*
X138462744Y-101192500D01*
X138482538Y-101194606D01*
X138486891Y-101194811D01*
X138497071Y-101197003D01*
X138527741Y-101193373D01*
X138533084Y-101193058D01*
X138533073Y-101192928D01*
X138538253Y-101192500D01*
X138543452Y-101192500D01*
X138548576Y-101191647D01*
X138548589Y-101191646D01*
X138561042Y-101189573D01*
X138566917Y-101188736D01*
X138603930Y-101184355D01*
X138614271Y-101183131D01*
X138621979Y-101179430D01*
X138630418Y-101178025D01*
X138672402Y-101155371D01*
X138677665Y-101152690D01*
X138685871Y-101148750D01*
X138720659Y-101132045D01*
X138724651Y-101128689D01*
X138726598Y-101126742D01*
X138728223Y-101125252D01*
X138728655Y-101125019D01*
X138728688Y-101125055D01*
X138728846Y-101124916D01*
X138734281Y-101121983D01*
X138755991Y-101098498D01*
X138768358Y-101085119D01*
X138771787Y-101081553D01*
X140953582Y-98899758D01*
X141015894Y-98865732D01*
X141086709Y-98870797D01*
X141143545Y-98913344D01*
X141168356Y-98979864D01*
X141153265Y-99049238D01*
X141145890Y-99061124D01*
X141106069Y-99117994D01*
X141100586Y-99127490D01*
X141008510Y-99324948D01*
X141004764Y-99335240D01*
X140958606Y-99507504D01*
X140958942Y-99521600D01*
X140966884Y-99525001D01*
X142368000Y-99525001D01*
X142436121Y-99545003D01*
X142482614Y-99598659D01*
X142494000Y-99651001D01*
X142494000Y-99907001D01*
X142473998Y-99975122D01*
X142420342Y-100021615D01*
X142368000Y-100033001D01*
X140972033Y-100033001D01*
X140958502Y-100036974D01*
X140957273Y-100045523D01*
X141004764Y-100222762D01*
X141008510Y-100233054D01*
X141100586Y-100430512D01*
X141106069Y-100440008D01*
X141231028Y-100618468D01*
X141238084Y-100626876D01*
X141392125Y-100780917D01*
X141400533Y-100787973D01*
X141578993Y-100912932D01*
X141588489Y-100918415D01*
X141785947Y-101010491D01*
X141796239Y-101014237D01*
X141961015Y-101058388D01*
X142021638Y-101095340D01*
X142052659Y-101159200D01*
X142044231Y-101229695D01*
X141999028Y-101284442D01*
X141963979Y-101300968D01*
X141947667Y-101305769D01*
X141843066Y-101336555D01*
X141837601Y-101339412D01*
X141665261Y-101429509D01*
X141665257Y-101429512D01*
X141659801Y-101432364D01*
X141498635Y-101561944D01*
X141365708Y-101720361D01*
X141266082Y-101901579D01*
X141203553Y-102098697D01*
X141202867Y-102104814D01*
X141202866Y-102104818D01*
X141183747Y-102275272D01*
X141180501Y-102304207D01*
X141181743Y-102319001D01*
X141191576Y-102436085D01*
X141197806Y-102510279D01*
X141221387Y-102592515D01*
X141226949Y-102611913D01*
X141226498Y-102682908D01*
X141194925Y-102735738D01*
X140944068Y-102986595D01*
X140881756Y-103020621D01*
X140854973Y-103023500D01*
X137828265Y-103023500D01*
X137760144Y-103003498D01*
X137752112Y-102997465D01*
X137749056Y-102993918D01*
X137716643Y-102972909D01*
X137635324Y-102920200D01*
X137635322Y-102920199D01*
X137627790Y-102915317D01*
X137610921Y-102910272D01*
X137497938Y-102876482D01*
X137497936Y-102876482D01*
X137489337Y-102873910D01*
X137480363Y-102873855D01*
X137480361Y-102873855D01*
X137417082Y-102873469D01*
X137344827Y-102873028D01*
X137336196Y-102875495D01*
X137336194Y-102875495D01*
X137214509Y-102910272D01*
X137214505Y-102910274D01*
X137205879Y-102912739D01*
X137198292Y-102917526D01*
X137198290Y-102917527D01*
X137091254Y-102985062D01*
X137083661Y-102989853D01*
X137077718Y-102996582D01*
X137077717Y-102996583D01*
X137023425Y-103058057D01*
X136987999Y-103098170D01*
X136984185Y-103106293D01*
X136984184Y-103106295D01*
X136976360Y-103122960D01*
X136926583Y-103228982D01*
X136925203Y-103237846D01*
X136925202Y-103237849D01*
X136907022Y-103354614D01*
X136904350Y-103371773D01*
X136923088Y-103515065D01*
X136981289Y-103647339D01*
X136987063Y-103654208D01*
X137053344Y-103733058D01*
X137074276Y-103757960D01*
X137081747Y-103762933D01*
X137081748Y-103762934D01*
X137187101Y-103833063D01*
X137187103Y-103833064D01*
X137194574Y-103838037D01*
X137203138Y-103840713D01*
X137203141Y-103840714D01*
X137263542Y-103859584D01*
X137332510Y-103881132D01*
X137476998Y-103883780D01*
X137496530Y-103878455D01*
X137607763Y-103848130D01*
X137607765Y-103848129D01*
X137616422Y-103845769D01*
X137739572Y-103770154D01*
X137745595Y-103763500D01*
X137747938Y-103761555D01*
X137813127Y-103733432D01*
X137828422Y-103732500D01*
X141002744Y-103732500D01*
X141022538Y-103734606D01*
X141026891Y-103734811D01*
X141037071Y-103737003D01*
X141067741Y-103733373D01*
X141073084Y-103733058D01*
X141073073Y-103732928D01*
X141078253Y-103732500D01*
X141083452Y-103732500D01*
X141088576Y-103731647D01*
X141088589Y-103731646D01*
X141101042Y-103729573D01*
X141106917Y-103728736D01*
X141143930Y-103724355D01*
X141154271Y-103723131D01*
X141161979Y-103719430D01*
X141170418Y-103718025D01*
X141212402Y-103695371D01*
X141217665Y-103692690D01*
X141225871Y-103688750D01*
X141260659Y-103672045D01*
X141264651Y-103668689D01*
X141266598Y-103666742D01*
X141268223Y-103665252D01*
X141268655Y-103665019D01*
X141268688Y-103665055D01*
X141268846Y-103664916D01*
X141274281Y-103661983D01*
X141295991Y-103638498D01*
X141308358Y-103625119D01*
X141311787Y-103621553D01*
X141637795Y-103295545D01*
X141700107Y-103261519D01*
X141770922Y-103266584D01*
X141788360Y-103274652D01*
X141806467Y-103284771D01*
X141815789Y-103289981D01*
X142012466Y-103353885D01*
X142217809Y-103378371D01*
X142223944Y-103377899D01*
X142223946Y-103377899D01*
X142417856Y-103362978D01*
X142417860Y-103362977D01*
X142423998Y-103362505D01*
X142623178Y-103306893D01*
X142628682Y-103304113D01*
X142628684Y-103304112D01*
X142802262Y-103216432D01*
X142802264Y-103216431D01*
X142807763Y-103213653D01*
X142970722Y-103086335D01*
X142974748Y-103081671D01*
X142974751Y-103081668D01*
X143098119Y-102938744D01*
X143157772Y-102900247D01*
X143228768Y-102900111D01*
X143288567Y-102938381D01*
X143318183Y-103002906D01*
X143319500Y-103021075D01*
X143319500Y-104160243D01*
X143299498Y-104228364D01*
X143245842Y-104274857D01*
X143175568Y-104284961D01*
X143110988Y-104255467D01*
X143095857Y-104239878D01*
X142995762Y-104117149D01*
X142995757Y-104117144D01*
X142991863Y-104112369D01*
X142984966Y-104106663D01*
X142837271Y-103984479D01*
X142837266Y-103984476D01*
X142832522Y-103980551D01*
X142827103Y-103977621D01*
X142827100Y-103977619D01*
X142656032Y-103885123D01*
X142656027Y-103885121D01*
X142650612Y-103882193D01*
X142453063Y-103821041D01*
X142446938Y-103820397D01*
X142446937Y-103820397D01*
X142253526Y-103800069D01*
X142253524Y-103800069D01*
X142247397Y-103799425D01*
X142121229Y-103810907D01*
X142047591Y-103817608D01*
X142047590Y-103817608D01*
X142041450Y-103818167D01*
X141843066Y-103876555D01*
X141837601Y-103879412D01*
X141665261Y-103969509D01*
X141665257Y-103969512D01*
X141659801Y-103972364D01*
X141655001Y-103976224D01*
X141655000Y-103976224D01*
X141649618Y-103980551D01*
X141498635Y-104101944D01*
X141428677Y-104185317D01*
X141375668Y-104248491D01*
X141316558Y-104287818D01*
X141279146Y-104293500D01*
X137828265Y-104293500D01*
X137760144Y-104273498D01*
X137752112Y-104267465D01*
X137749056Y-104263918D01*
X137716643Y-104242909D01*
X137635324Y-104190200D01*
X137635322Y-104190199D01*
X137627790Y-104185317D01*
X137543950Y-104160243D01*
X137497938Y-104146482D01*
X137497936Y-104146482D01*
X137489337Y-104143910D01*
X137480363Y-104143855D01*
X137480361Y-104143855D01*
X137417082Y-104143469D01*
X137344827Y-104143028D01*
X137336196Y-104145495D01*
X137336194Y-104145495D01*
X137214509Y-104180272D01*
X137214505Y-104180274D01*
X137205879Y-104182739D01*
X137198292Y-104187526D01*
X137198290Y-104187527D01*
X137091254Y-104255062D01*
X137083661Y-104259853D01*
X137077718Y-104266582D01*
X137077717Y-104266583D01*
X137023424Y-104328059D01*
X136987999Y-104368170D01*
X136984185Y-104376293D01*
X136984184Y-104376295D01*
X136970635Y-104405154D01*
X136926583Y-104498982D01*
X136925203Y-104507846D01*
X136925202Y-104507849D01*
X136923913Y-104516132D01*
X136904350Y-104641773D01*
X136905514Y-104650675D01*
X136905514Y-104650678D01*
X136921924Y-104776164D01*
X136923088Y-104785065D01*
X136981289Y-104917339D01*
X136987063Y-104924208D01*
X137052875Y-105002500D01*
X137074276Y-105027960D01*
X137081747Y-105032933D01*
X137081748Y-105032934D01*
X137187101Y-105103063D01*
X137187103Y-105103064D01*
X137194574Y-105108037D01*
X137203138Y-105110713D01*
X137203141Y-105110714D01*
X137263542Y-105129584D01*
X137332510Y-105151132D01*
X137476998Y-105153780D01*
X137527734Y-105139948D01*
X137607763Y-105118130D01*
X137607765Y-105118129D01*
X137616422Y-105115769D01*
X137739572Y-105040154D01*
X137745595Y-105033500D01*
X137747938Y-105031555D01*
X137813127Y-105003432D01*
X137828422Y-105002500D01*
X141089158Y-105002500D01*
X141157279Y-105022502D01*
X141203772Y-105076158D01*
X141210276Y-105093767D01*
X141254807Y-105249067D01*
X141257625Y-105254549D01*
X141257626Y-105254553D01*
X141346514Y-105427510D01*
X141346517Y-105427514D01*
X141349334Y-105432996D01*
X141477786Y-105595062D01*
X141482479Y-105599056D01*
X141482480Y-105599057D01*
X141527651Y-105637500D01*
X141635271Y-105729092D01*
X141815789Y-105829981D01*
X142012466Y-105893885D01*
X142217809Y-105918371D01*
X142223944Y-105917899D01*
X142223946Y-105917899D01*
X142417856Y-105902978D01*
X142417860Y-105902977D01*
X142423998Y-105902505D01*
X142623178Y-105846893D01*
X142628682Y-105844113D01*
X142628684Y-105844112D01*
X142802262Y-105756432D01*
X142802264Y-105756431D01*
X142807763Y-105753653D01*
X142970722Y-105626335D01*
X142974748Y-105621671D01*
X142974751Y-105621668D01*
X143098119Y-105478744D01*
X143157772Y-105440247D01*
X143228768Y-105440111D01*
X143288567Y-105478381D01*
X143318183Y-105542906D01*
X143319500Y-105561075D01*
X143319500Y-106700243D01*
X143299498Y-106768364D01*
X143245842Y-106814857D01*
X143175568Y-106824961D01*
X143110988Y-106795467D01*
X143095857Y-106779878D01*
X142995762Y-106657149D01*
X142995759Y-106657146D01*
X142991863Y-106652369D01*
X142984966Y-106646663D01*
X142837271Y-106524479D01*
X142837266Y-106524476D01*
X142832522Y-106520551D01*
X142827103Y-106517621D01*
X142827100Y-106517619D01*
X142656032Y-106425123D01*
X142656027Y-106425121D01*
X142650612Y-106422193D01*
X142453063Y-106361041D01*
X142446938Y-106360397D01*
X142446937Y-106360397D01*
X142253526Y-106340069D01*
X142253524Y-106340069D01*
X142247397Y-106339425D01*
X142121229Y-106350907D01*
X142047591Y-106357608D01*
X142047590Y-106357608D01*
X142041450Y-106358167D01*
X141843066Y-106416555D01*
X141837601Y-106419412D01*
X141665261Y-106509509D01*
X141665257Y-106509512D01*
X141659801Y-106512364D01*
X141498635Y-106641944D01*
X141365708Y-106800361D01*
X141266082Y-106981579D01*
X141203553Y-107178697D01*
X141180501Y-107384207D01*
X141181017Y-107390350D01*
X141196888Y-107579343D01*
X141197806Y-107590279D01*
X141254807Y-107789067D01*
X141257625Y-107794549D01*
X141257626Y-107794553D01*
X141346514Y-107967510D01*
X141346517Y-107967514D01*
X141349334Y-107972996D01*
X141477786Y-108135062D01*
X141635271Y-108269092D01*
X141815789Y-108369981D01*
X142012466Y-108433885D01*
X142217809Y-108458371D01*
X142223944Y-108457899D01*
X142223946Y-108457899D01*
X142417856Y-108442978D01*
X142417860Y-108442977D01*
X142423998Y-108442505D01*
X142623178Y-108386893D01*
X142628682Y-108384113D01*
X142628684Y-108384112D01*
X142802262Y-108296432D01*
X142802264Y-108296431D01*
X142807763Y-108293653D01*
X142970722Y-108166335D01*
X142974748Y-108161671D01*
X142974751Y-108161668D01*
X143098119Y-108018744D01*
X143157772Y-107980247D01*
X143228768Y-107980111D01*
X143288567Y-108018381D01*
X143318183Y-108082906D01*
X143319500Y-108101075D01*
X143319500Y-108585500D01*
X143299498Y-108653621D01*
X143245842Y-108700114D01*
X143193500Y-108711500D01*
X136386961Y-108711500D01*
X136318840Y-108691498D01*
X136272347Y-108637842D01*
X136262243Y-108567568D01*
X136266668Y-108550295D01*
X136266651Y-108550291D01*
X136272105Y-108527351D01*
X136277631Y-108476486D01*
X136278000Y-108469672D01*
X136278000Y-106697115D01*
X136273525Y-106681876D01*
X136272135Y-106680671D01*
X136264452Y-106679000D01*
X132980116Y-106679000D01*
X132964877Y-106683475D01*
X132963672Y-106684865D01*
X132962001Y-106692548D01*
X132962001Y-108469669D01*
X132962371Y-108476490D01*
X132967895Y-108527352D01*
X132973349Y-108550293D01*
X132971709Y-108550683D01*
X132976204Y-108612076D01*
X132942284Y-108674446D01*
X132880029Y-108708575D01*
X132853039Y-108711500D01*
X127805606Y-108711500D01*
X127737485Y-108691498D01*
X127690992Y-108637842D01*
X127680888Y-108567568D01*
X127710382Y-108502988D01*
X127733335Y-108482287D01*
X127839467Y-108407973D01*
X127847875Y-108400917D01*
X128001916Y-108246876D01*
X128008972Y-108238468D01*
X128133931Y-108060008D01*
X128139414Y-108050512D01*
X128231490Y-107853054D01*
X128235236Y-107842762D01*
X128281394Y-107670498D01*
X128281058Y-107656402D01*
X128273116Y-107653001D01*
X126872000Y-107653001D01*
X126803879Y-107632999D01*
X126757386Y-107579343D01*
X126746000Y-107527001D01*
X126746000Y-107271001D01*
X126766002Y-107202880D01*
X126819658Y-107156387D01*
X126872000Y-107145001D01*
X128267967Y-107145001D01*
X128281498Y-107141028D01*
X128282727Y-107132479D01*
X128235236Y-106955240D01*
X128231490Y-106944948D01*
X128139414Y-106747490D01*
X128133931Y-106737994D01*
X128008972Y-106559534D01*
X128001916Y-106551126D01*
X127847875Y-106397085D01*
X127839467Y-106390029D01*
X127661007Y-106265070D01*
X127651511Y-106259587D01*
X127454053Y-106167511D01*
X127443761Y-106163765D01*
X127278603Y-106119511D01*
X127217980Y-106082559D01*
X127186959Y-106018698D01*
X127195387Y-105948204D01*
X127240590Y-105893457D01*
X127277323Y-105876448D01*
X127383178Y-105846893D01*
X127388682Y-105844113D01*
X127388684Y-105844112D01*
X127562262Y-105756432D01*
X127562264Y-105756431D01*
X127567763Y-105753653D01*
X127682245Y-105664210D01*
X127748237Y-105638033D01*
X127759816Y-105637500D01*
X131919595Y-105637500D01*
X131987716Y-105657502D01*
X131993187Y-105661665D01*
X131994276Y-105662960D01*
X131999179Y-105666224D01*
X131999186Y-105666229D01*
X132107101Y-105738063D01*
X132107103Y-105738064D01*
X132114574Y-105743037D01*
X132123138Y-105745713D01*
X132123141Y-105745714D01*
X132183542Y-105764584D01*
X132252510Y-105786132D01*
X132396998Y-105788780D01*
X132416530Y-105783455D01*
X132527763Y-105753130D01*
X132527765Y-105753129D01*
X132536422Y-105750769D01*
X132659572Y-105675154D01*
X132665598Y-105668497D01*
X132742585Y-105583444D01*
X132803128Y-105546362D01*
X132874108Y-105547900D01*
X132932989Y-105587568D01*
X132961077Y-105652773D01*
X132962000Y-105667999D01*
X132962000Y-106152885D01*
X132966475Y-106168124D01*
X132967865Y-106169329D01*
X132975548Y-106171000D01*
X134347885Y-106171000D01*
X134363124Y-106166525D01*
X134364329Y-106165135D01*
X134366000Y-106157452D01*
X134366000Y-106152885D01*
X134874000Y-106152885D01*
X134878475Y-106168124D01*
X134879865Y-106169329D01*
X134887548Y-106171000D01*
X136259884Y-106171000D01*
X136275123Y-106166525D01*
X136276328Y-106165135D01*
X136277999Y-106157452D01*
X136277999Y-104380331D01*
X136277629Y-104373510D01*
X136272105Y-104322648D01*
X136268479Y-104307396D01*
X136223324Y-104186946D01*
X136214786Y-104171351D01*
X136138285Y-104069276D01*
X136125724Y-104056715D01*
X136023649Y-103980214D01*
X136008054Y-103971676D01*
X135887606Y-103926522D01*
X135872351Y-103922895D01*
X135821486Y-103917369D01*
X135814672Y-103917000D01*
X134892115Y-103917000D01*
X134876876Y-103921475D01*
X134875671Y-103922865D01*
X134874000Y-103930548D01*
X134874000Y-106152885D01*
X134366000Y-106152885D01*
X134366000Y-103935116D01*
X134361525Y-103919877D01*
X134360135Y-103918672D01*
X134352452Y-103917001D01*
X133425331Y-103917001D01*
X133418510Y-103917371D01*
X133367648Y-103922895D01*
X133352396Y-103926521D01*
X133231946Y-103971676D01*
X133216351Y-103980214D01*
X133114276Y-104056715D01*
X133101715Y-104069276D01*
X133069480Y-104112287D01*
X133012621Y-104154802D01*
X132941802Y-104159828D01*
X132879509Y-104125768D01*
X132845519Y-104063437D01*
X132843260Y-104027096D01*
X132843536Y-104025453D01*
X132843688Y-104013000D01*
X132830784Y-103922895D01*
X132824474Y-103878835D01*
X132824473Y-103878833D01*
X132823201Y-103869948D01*
X132763388Y-103738395D01*
X132757530Y-103731596D01*
X132757527Y-103731592D01*
X132674916Y-103635718D01*
X132674913Y-103635716D01*
X132669056Y-103628918D01*
X132547790Y-103550317D01*
X132530921Y-103545272D01*
X132417938Y-103511482D01*
X132417936Y-103511482D01*
X132409337Y-103508910D01*
X132400363Y-103508855D01*
X132400361Y-103508855D01*
X132337082Y-103508469D01*
X132264827Y-103508028D01*
X132256196Y-103510495D01*
X132256194Y-103510495D01*
X132134509Y-103545272D01*
X132134505Y-103545274D01*
X132125879Y-103547739D01*
X132003661Y-103624853D01*
X131999888Y-103629125D01*
X131936555Y-103657372D01*
X131919730Y-103658500D01*
X129020027Y-103658500D01*
X128951906Y-103638498D01*
X128930932Y-103621595D01*
X128045817Y-102736480D01*
X128011791Y-102674168D01*
X128015353Y-102607614D01*
X128031325Y-102559600D01*
X128033270Y-102553754D01*
X128059189Y-102348587D01*
X128059602Y-102319001D01*
X128039422Y-102113190D01*
X127979651Y-101915218D01*
X127916130Y-101795753D01*
X127885459Y-101738068D01*
X127885457Y-101738065D01*
X127882565Y-101732626D01*
X127878674Y-101727856D01*
X127878672Y-101727852D01*
X127755758Y-101577144D01*
X127755755Y-101577141D01*
X127751863Y-101572369D01*
X127744966Y-101566663D01*
X127597271Y-101444479D01*
X127597266Y-101444476D01*
X127592522Y-101440551D01*
X127587103Y-101437621D01*
X127587100Y-101437619D01*
X127416032Y-101345123D01*
X127416027Y-101345121D01*
X127410612Y-101342193D01*
X127213063Y-101281041D01*
X127206938Y-101280397D01*
X127206937Y-101280397D01*
X127013526Y-101260069D01*
X127013524Y-101260069D01*
X127007397Y-101259425D01*
X126881229Y-101270907D01*
X126807591Y-101277608D01*
X126807590Y-101277608D01*
X126801450Y-101278167D01*
X126603066Y-101336555D01*
X126597601Y-101339412D01*
X126425261Y-101429509D01*
X126425257Y-101429512D01*
X126419801Y-101432364D01*
X126258635Y-101561944D01*
X126209717Y-101620243D01*
X126143022Y-101699727D01*
X126083912Y-101739054D01*
X126012925Y-101740180D01*
X125952597Y-101702749D01*
X125922083Y-101638645D01*
X125920500Y-101618736D01*
X125920500Y-100476569D01*
X125940502Y-100408448D01*
X125994158Y-100361955D01*
X126064432Y-100351851D01*
X126129012Y-100381345D01*
X126145245Y-100398305D01*
X126233953Y-100510227D01*
X126233958Y-100510232D01*
X126237786Y-100515062D01*
X126242479Y-100519056D01*
X126242480Y-100519057D01*
X126324076Y-100588500D01*
X126395271Y-100649092D01*
X126575789Y-100749981D01*
X126772466Y-100813885D01*
X126977809Y-100838371D01*
X126983944Y-100837899D01*
X126983946Y-100837899D01*
X127177856Y-100822978D01*
X127177860Y-100822977D01*
X127183998Y-100822505D01*
X127383178Y-100766893D01*
X127454827Y-100730701D01*
X127524649Y-100717841D01*
X127590340Y-100744771D01*
X127600732Y-100754072D01*
X129804083Y-102957423D01*
X129816591Y-102972909D01*
X129819525Y-102976134D01*
X129825174Y-102984882D01*
X129833351Y-102991328D01*
X129849429Y-103004003D01*
X129853432Y-103007561D01*
X129853517Y-103007461D01*
X129857474Y-103010814D01*
X129861155Y-103014495D01*
X129865387Y-103017519D01*
X129865389Y-103017521D01*
X129875664Y-103024864D01*
X129880408Y-103028426D01*
X129909674Y-103051497D01*
X129909678Y-103051499D01*
X129917856Y-103057946D01*
X129925924Y-103060779D01*
X129932884Y-103065753D01*
X129942862Y-103068737D01*
X129978585Y-103079420D01*
X129984234Y-103081256D01*
X129999462Y-103086604D01*
X130029207Y-103097050D01*
X130034403Y-103097500D01*
X130037108Y-103097500D01*
X130039364Y-103097597D01*
X130039840Y-103097740D01*
X130039838Y-103097786D01*
X130040037Y-103097799D01*
X130045954Y-103099568D01*
X130096123Y-103097597D01*
X130101069Y-103097500D01*
X131919595Y-103097500D01*
X131987716Y-103117502D01*
X131993187Y-103121665D01*
X131994276Y-103122960D01*
X131999179Y-103126224D01*
X131999186Y-103126229D01*
X132107101Y-103198063D01*
X132107103Y-103198064D01*
X132114574Y-103203037D01*
X132123138Y-103205713D01*
X132123141Y-103205714D01*
X132183542Y-103224584D01*
X132252510Y-103246132D01*
X132396998Y-103248780D01*
X132467431Y-103229578D01*
X132527763Y-103213130D01*
X132527765Y-103213129D01*
X132536422Y-103210769D01*
X132659572Y-103135154D01*
X132756551Y-103028014D01*
X132795100Y-102948448D01*
X132815645Y-102906043D01*
X132815645Y-102906042D01*
X132819560Y-102897962D01*
X132843536Y-102755453D01*
X132843688Y-102743000D01*
X132823201Y-102599948D01*
X132763388Y-102468395D01*
X132757530Y-102461596D01*
X132757527Y-102461592D01*
X132674916Y-102365718D01*
X132674913Y-102365716D01*
X132669056Y-102358918D01*
X132547790Y-102280317D01*
X132530921Y-102275272D01*
X132417938Y-102241482D01*
X132417936Y-102241482D01*
X132409337Y-102238910D01*
X132400363Y-102238855D01*
X132400361Y-102238855D01*
X132337082Y-102238469D01*
X132264827Y-102238028D01*
X132256196Y-102240495D01*
X132256194Y-102240495D01*
X132134509Y-102275272D01*
X132134505Y-102275274D01*
X132125879Y-102277739D01*
X132118292Y-102282526D01*
X132118290Y-102282527D01*
X132019177Y-102345063D01*
X132003661Y-102354853D01*
X131999888Y-102359125D01*
X131936555Y-102387372D01*
X131919730Y-102388500D01*
X130290028Y-102388500D01*
X130221907Y-102368498D01*
X130200933Y-102351595D01*
X128045818Y-100196480D01*
X128011792Y-100134168D01*
X128015354Y-100067615D01*
X128031324Y-100019606D01*
X128031325Y-100019600D01*
X128033270Y-100013754D01*
X128059189Y-99808587D01*
X128059602Y-99779001D01*
X128039422Y-99573190D01*
X127979651Y-99375218D01*
X127896064Y-99218014D01*
X127885459Y-99198068D01*
X127885457Y-99198065D01*
X127882565Y-99192626D01*
X127878674Y-99187856D01*
X127878672Y-99187852D01*
X127755758Y-99037144D01*
X127755755Y-99037141D01*
X127751863Y-99032369D01*
X127744966Y-99026663D01*
X127597271Y-98904479D01*
X127597266Y-98904476D01*
X127592522Y-98900551D01*
X127587103Y-98897621D01*
X127587100Y-98897619D01*
X127416032Y-98805123D01*
X127416027Y-98805121D01*
X127410612Y-98802193D01*
X127213063Y-98741041D01*
X127206938Y-98740397D01*
X127206937Y-98740397D01*
X127013526Y-98720069D01*
X127013524Y-98720069D01*
X127007397Y-98719425D01*
X126881229Y-98730907D01*
X126807591Y-98737608D01*
X126807590Y-98737608D01*
X126801450Y-98738167D01*
X126603066Y-98796555D01*
X126597601Y-98799412D01*
X126425261Y-98889509D01*
X126425257Y-98889512D01*
X126419801Y-98892364D01*
X126258635Y-99021944D01*
X126186823Y-99107527D01*
X126143022Y-99159727D01*
X126083912Y-99199054D01*
X126012925Y-99200180D01*
X125952597Y-99162749D01*
X125922083Y-99098645D01*
X125920500Y-99078736D01*
X125920500Y-97936569D01*
X125940502Y-97868448D01*
X125994158Y-97821955D01*
X126064432Y-97811851D01*
X126129012Y-97841345D01*
X126145245Y-97858305D01*
X126233953Y-97970227D01*
X126233958Y-97970232D01*
X126237786Y-97975062D01*
X126395271Y-98109092D01*
X126575789Y-98209981D01*
X126772466Y-98273885D01*
X126977809Y-98298371D01*
X126983944Y-98297899D01*
X126983946Y-98297899D01*
X127177856Y-98282978D01*
X127177860Y-98282977D01*
X127183998Y-98282505D01*
X127383178Y-98226893D01*
X127454829Y-98190699D01*
X127524648Y-98177840D01*
X127590339Y-98204769D01*
X127600732Y-98214071D01*
X131074081Y-101687420D01*
X131086586Y-101702902D01*
X131089522Y-101706129D01*
X131095174Y-101714882D01*
X131119437Y-101734009D01*
X131123432Y-101737559D01*
X131123516Y-101737460D01*
X131127479Y-101740818D01*
X131131155Y-101744494D01*
X131135384Y-101747517D01*
X131135385Y-101747517D01*
X131145651Y-101754854D01*
X131150394Y-101758415D01*
X131179674Y-101781497D01*
X131179678Y-101781499D01*
X131187856Y-101787946D01*
X131195924Y-101790779D01*
X131202884Y-101795753D01*
X131212862Y-101798737D01*
X131248585Y-101809420D01*
X131254234Y-101811256D01*
X131299207Y-101827050D01*
X131304403Y-101827500D01*
X131307108Y-101827500D01*
X131309364Y-101827597D01*
X131309840Y-101827740D01*
X131309838Y-101827786D01*
X131310037Y-101827799D01*
X131315954Y-101829568D01*
X131366123Y-101827597D01*
X131371069Y-101827500D01*
X131919595Y-101827500D01*
X131987716Y-101847502D01*
X131993187Y-101851665D01*
X131994276Y-101852960D01*
X131999179Y-101856224D01*
X131999186Y-101856229D01*
X132107101Y-101928063D01*
X132107103Y-101928064D01*
X132114574Y-101933037D01*
X132123138Y-101935713D01*
X132123141Y-101935714D01*
X132183542Y-101954584D01*
X132252510Y-101976132D01*
X132396998Y-101978780D01*
X132406751Y-101976121D01*
X133745732Y-101976121D01*
X133746089Y-101982937D01*
X133746089Y-101982942D01*
X133751848Y-102092824D01*
X133755631Y-102164997D01*
X133805857Y-102347342D01*
X133894067Y-102514648D01*
X134016146Y-102659109D01*
X134021569Y-102663256D01*
X134021571Y-102663257D01*
X134160977Y-102769841D01*
X134160981Y-102769843D01*
X134166398Y-102773985D01*
X134337814Y-102853917D01*
X134522394Y-102895176D01*
X134528189Y-102895500D01*
X134667249Y-102895500D01*
X134808029Y-102880206D01*
X134895006Y-102850935D01*
X134980821Y-102822056D01*
X134980823Y-102822055D01*
X134987286Y-102819880D01*
X135149407Y-102722468D01*
X135163578Y-102709067D01*
X135281870Y-102597204D01*
X135281872Y-102597202D01*
X135286828Y-102592515D01*
X135393138Y-102436085D01*
X135424189Y-102358453D01*
X135460843Y-102266812D01*
X135460844Y-102266807D01*
X135463377Y-102260475D01*
X135464491Y-102253748D01*
X135464492Y-102253743D01*
X135493153Y-102080616D01*
X135493153Y-102080613D01*
X135494268Y-102073879D01*
X135489145Y-101976121D01*
X135484726Y-101891816D01*
X135484369Y-101885003D01*
X135434143Y-101702658D01*
X135345933Y-101535352D01*
X135307817Y-101490247D01*
X135228260Y-101396105D01*
X135223854Y-101390891D01*
X135163992Y-101345123D01*
X135079023Y-101280159D01*
X135079019Y-101280157D01*
X135073602Y-101276015D01*
X134902186Y-101196083D01*
X134717606Y-101154824D01*
X134711811Y-101154500D01*
X134572751Y-101154500D01*
X134431971Y-101169794D01*
X134353854Y-101196083D01*
X134259179Y-101227944D01*
X134259177Y-101227945D01*
X134252714Y-101230120D01*
X134090593Y-101327532D01*
X134085633Y-101332223D01*
X134085631Y-101332224D01*
X133974180Y-101437619D01*
X133953172Y-101457485D01*
X133846862Y-101613915D01*
X133844329Y-101620249D01*
X133844327Y-101620252D01*
X133779157Y-101783188D01*
X133779156Y-101783193D01*
X133776623Y-101789525D01*
X133775509Y-101796252D01*
X133775508Y-101796257D01*
X133746847Y-101969384D01*
X133745732Y-101976121D01*
X132406751Y-101976121D01*
X132416530Y-101973455D01*
X132527763Y-101943130D01*
X132527765Y-101943129D01*
X132536422Y-101940769D01*
X132659572Y-101865154D01*
X132756551Y-101758014D01*
X132819560Y-101627962D01*
X132843536Y-101485453D01*
X132843688Y-101473000D01*
X132831335Y-101386743D01*
X132824474Y-101338835D01*
X132824473Y-101338833D01*
X132823201Y-101329948D01*
X132763388Y-101198395D01*
X132757530Y-101191596D01*
X132757527Y-101191592D01*
X132674916Y-101095718D01*
X132674913Y-101095716D01*
X132669056Y-101088918D01*
X132547790Y-101010317D01*
X132530921Y-101005272D01*
X132417938Y-100971482D01*
X132417936Y-100971482D01*
X132409337Y-100968910D01*
X132400363Y-100968855D01*
X132400361Y-100968855D01*
X132337082Y-100968469D01*
X132264827Y-100968028D01*
X132256196Y-100970495D01*
X132256194Y-100970495D01*
X132134509Y-101005272D01*
X132134505Y-101005274D01*
X132125879Y-101007739D01*
X132118292Y-101012526D01*
X132118290Y-101012527D01*
X132045605Y-101058388D01*
X132003661Y-101084853D01*
X131999888Y-101089125D01*
X131936555Y-101117372D01*
X131919730Y-101118500D01*
X131560028Y-101118500D01*
X131491907Y-101098498D01*
X131470933Y-101081595D01*
X128045818Y-97656480D01*
X128011792Y-97594168D01*
X128015354Y-97527615D01*
X128031324Y-97479606D01*
X128031325Y-97479600D01*
X128033270Y-97473754D01*
X128059189Y-97268587D01*
X128059602Y-97239001D01*
X128039422Y-97033190D01*
X127979651Y-96835218D01*
X127889124Y-96664961D01*
X127885459Y-96658068D01*
X127885457Y-96658065D01*
X127882565Y-96652626D01*
X127878674Y-96647856D01*
X127878672Y-96647852D01*
X127755758Y-96497144D01*
X127755755Y-96497141D01*
X127751863Y-96492369D01*
X127744966Y-96486663D01*
X127597271Y-96364479D01*
X127597266Y-96364476D01*
X127592522Y-96360551D01*
X127587103Y-96357621D01*
X127587100Y-96357619D01*
X127416032Y-96265123D01*
X127416027Y-96265121D01*
X127410612Y-96262193D01*
X127213063Y-96201041D01*
X127206938Y-96200397D01*
X127206937Y-96200397D01*
X127013526Y-96180069D01*
X127013524Y-96180069D01*
X127007397Y-96179425D01*
X126881229Y-96190907D01*
X126807591Y-96197608D01*
X126807590Y-96197608D01*
X126801450Y-96198167D01*
X126603066Y-96256555D01*
X126597601Y-96259412D01*
X126425261Y-96349509D01*
X126425257Y-96349512D01*
X126419801Y-96352364D01*
X126258635Y-96481944D01*
X126209717Y-96540243D01*
X126143022Y-96619727D01*
X126083912Y-96659054D01*
X126012925Y-96660180D01*
X125952597Y-96622749D01*
X125922083Y-96558645D01*
X125920500Y-96538736D01*
X125920500Y-95396569D01*
X125940502Y-95328448D01*
X125994158Y-95281955D01*
X126064432Y-95271851D01*
X126129012Y-95301345D01*
X126145245Y-95318305D01*
X126233953Y-95430227D01*
X126233958Y-95430232D01*
X126237786Y-95435062D01*
X126395271Y-95569092D01*
X126575789Y-95669981D01*
X126772466Y-95733885D01*
X126977809Y-95758371D01*
X126983944Y-95757899D01*
X126983946Y-95757899D01*
X127177857Y-95742978D01*
X127177862Y-95742977D01*
X127183998Y-95742505D01*
X127189933Y-95740848D01*
X127260181Y-95721235D01*
X127331171Y-95722182D01*
X127383159Y-95753498D01*
X127559979Y-95930317D01*
X127725306Y-96095644D01*
X127725311Y-96095650D01*
X131793750Y-100164088D01*
X131827774Y-100226399D01*
X131829590Y-100236844D01*
X131843088Y-100340065D01*
X131901289Y-100472339D01*
X131907063Y-100479208D01*
X131980268Y-100566295D01*
X131994276Y-100582960D01*
X132001747Y-100587933D01*
X132001748Y-100587934D01*
X132107101Y-100658063D01*
X132107103Y-100658064D01*
X132114574Y-100663037D01*
X132123138Y-100665713D01*
X132123141Y-100665714D01*
X132183542Y-100684585D01*
X132252510Y-100706132D01*
X132396998Y-100708780D01*
X132467431Y-100689578D01*
X132527763Y-100673130D01*
X132527765Y-100673129D01*
X132536422Y-100670769D01*
X132659572Y-100595154D01*
X132756551Y-100488014D01*
X132819560Y-100357962D01*
X132843536Y-100215453D01*
X132843688Y-100203000D01*
X132825182Y-100073780D01*
X132824474Y-100068835D01*
X132824473Y-100068833D01*
X132823201Y-100059948D01*
X132763388Y-99928395D01*
X132757530Y-99921596D01*
X132757527Y-99921592D01*
X132674916Y-99825718D01*
X132674913Y-99825716D01*
X132669056Y-99818918D01*
X132547790Y-99740317D01*
X132539190Y-99737745D01*
X132417938Y-99701482D01*
X132417936Y-99701482D01*
X132409337Y-99698910D01*
X132400361Y-99698855D01*
X132400360Y-99698855D01*
X132382507Y-99698746D01*
X132314510Y-99678328D01*
X132294182Y-99661843D01*
X132285831Y-99653492D01*
X132251805Y-99591180D01*
X132256870Y-99520365D01*
X132299417Y-99463529D01*
X132365937Y-99438718D01*
X132377234Y-99438418D01*
X132388020Y-99438616D01*
X132388024Y-99438616D01*
X132396998Y-99438780D01*
X132437093Y-99427849D01*
X132527763Y-99403130D01*
X132527765Y-99403129D01*
X132536422Y-99400769D01*
X132659572Y-99325154D01*
X132756551Y-99218014D01*
X132819560Y-99087962D01*
X132843536Y-98945453D01*
X132843688Y-98933000D01*
X132827381Y-98819134D01*
X132824474Y-98798835D01*
X132824473Y-98798833D01*
X132823201Y-98789948D01*
X132763388Y-98658395D01*
X132757530Y-98651596D01*
X132757527Y-98651592D01*
X132674916Y-98555718D01*
X132674913Y-98555716D01*
X132669056Y-98548918D01*
X132547790Y-98470317D01*
X132539190Y-98467745D01*
X132417938Y-98431482D01*
X132417936Y-98431482D01*
X132409337Y-98428910D01*
X132400361Y-98428855D01*
X132400360Y-98428855D01*
X132382507Y-98428746D01*
X132314510Y-98408328D01*
X132294182Y-98391843D01*
X132288591Y-98386252D01*
X132254565Y-98323940D01*
X132259630Y-98253125D01*
X132302177Y-98196289D01*
X132368697Y-98171478D01*
X132379988Y-98171178D01*
X132396998Y-98171490D01*
X132406711Y-98168842D01*
X132527763Y-98135840D01*
X132527765Y-98135839D01*
X132536422Y-98133479D01*
X132659572Y-98057864D01*
X132756551Y-97950724D01*
X132796413Y-97868448D01*
X132815645Y-97828753D01*
X132815645Y-97828752D01*
X132819560Y-97820672D01*
X132843536Y-97678163D01*
X132843688Y-97665710D01*
X132844523Y-97665720D01*
X132859120Y-97600627D01*
X132909642Y-97550747D01*
X132979111Y-97536099D01*
X133002249Y-97540556D01*
X133005944Y-97541154D01*
X133014514Y-97543832D01*
X133159002Y-97546480D01*
X133180731Y-97540556D01*
X133289767Y-97510830D01*
X133289769Y-97510829D01*
X133298426Y-97508469D01*
X133421576Y-97432854D01*
X133518555Y-97325714D01*
X133581564Y-97195662D01*
X133605540Y-97053153D01*
X133605692Y-97040700D01*
X133585205Y-96897648D01*
X133536803Y-96791192D01*
X133525504Y-96739041D01*
X133525504Y-94761442D01*
X133545506Y-94693321D01*
X133599162Y-94646828D01*
X133669436Y-94636724D01*
X133734016Y-94666218D01*
X133772980Y-94727982D01*
X133800335Y-94827293D01*
X133805857Y-94847342D01*
X133894067Y-95014648D01*
X133898469Y-95019857D01*
X133898471Y-95019860D01*
X133955102Y-95086873D01*
X134016146Y-95159109D01*
X134021569Y-95163256D01*
X134021571Y-95163257D01*
X134160977Y-95269841D01*
X134160981Y-95269843D01*
X134166398Y-95273985D01*
X134337814Y-95353917D01*
X134522394Y-95395176D01*
X134528189Y-95395500D01*
X134667249Y-95395500D01*
X134808029Y-95380206D01*
X134895006Y-95350935D01*
X134980821Y-95322056D01*
X134980823Y-95322055D01*
X134987286Y-95319880D01*
X134994523Y-95315532D01*
X135070565Y-95269841D01*
X135149407Y-95222468D01*
X135155988Y-95216245D01*
X135281870Y-95097204D01*
X135281872Y-95097202D01*
X135286828Y-95092515D01*
X135393138Y-94936085D01*
X135397721Y-94924627D01*
X135460843Y-94766812D01*
X135460844Y-94766807D01*
X135463377Y-94760475D01*
X135464491Y-94753748D01*
X135464492Y-94753743D01*
X135493153Y-94580616D01*
X135493153Y-94580613D01*
X135494268Y-94573879D01*
X135492387Y-94537973D01*
X135484726Y-94391816D01*
X135484369Y-94385003D01*
X135434143Y-94202658D01*
X135345933Y-94035352D01*
X135331815Y-94018645D01*
X135228260Y-93896105D01*
X135223854Y-93890891D01*
X135218429Y-93886743D01*
X135079023Y-93780159D01*
X135079019Y-93780157D01*
X135073602Y-93776015D01*
X134902186Y-93696083D01*
X134717606Y-93654824D01*
X134711811Y-93654500D01*
X134710486Y-93654500D01*
X134709207Y-93654086D01*
X134707316Y-93653823D01*
X134707363Y-93653488D01*
X134642988Y-93632622D01*
X134598007Y-93577693D01*
X134589864Y-93507165D01*
X134624939Y-93439467D01*
X134900396Y-93164010D01*
X134911486Y-93154155D01*
X134929229Y-93140168D01*
X134929233Y-93140164D01*
X134936628Y-93134334D01*
X134968371Y-93088405D01*
X134970666Y-93085193D01*
X134998268Y-93047824D01*
X134998269Y-93047823D01*
X135003865Y-93040246D01*
X135006147Y-93033749D01*
X135010059Y-93028088D01*
X135026895Y-92974852D01*
X135028146Y-92971103D01*
X135043536Y-92927280D01*
X135043538Y-92927272D01*
X135046657Y-92918389D01*
X135046927Y-92911510D01*
X135049003Y-92904947D01*
X135049500Y-92898633D01*
X135049500Y-92848515D01*
X135049597Y-92843569D01*
X135051287Y-92800553D01*
X135073948Y-92733270D01*
X135129387Y-92688919D01*
X135177190Y-92679499D01*
X135795066Y-92679499D01*
X135830818Y-92672388D01*
X135857126Y-92667156D01*
X135857128Y-92667155D01*
X135869301Y-92664734D01*
X135879621Y-92657839D01*
X135879622Y-92657838D01*
X135943168Y-92615377D01*
X135953484Y-92608484D01*
X136009734Y-92524301D01*
X136024500Y-92450067D01*
X136024499Y-88399934D01*
X136009734Y-88325699D01*
X135953484Y-88241516D01*
X135869301Y-88185266D01*
X135795067Y-88170500D01*
X134620190Y-88170500D01*
X133444934Y-88170501D01*
X133409182Y-88177612D01*
X133382874Y-88182844D01*
X133382872Y-88182845D01*
X133370699Y-88185266D01*
X133360379Y-88192161D01*
X133360378Y-88192162D01*
X133329010Y-88213122D01*
X133304087Y-88220926D01*
X133297287Y-88234168D01*
X133296832Y-88234623D01*
X133286516Y-88241516D01*
X133230266Y-88325699D01*
X133215500Y-88399933D01*
X133215501Y-92450066D01*
X133230266Y-92524301D01*
X133286516Y-92608484D01*
X133370699Y-92664734D01*
X133444933Y-92679500D01*
X133865905Y-92679500D01*
X133934026Y-92699502D01*
X133980519Y-92753158D01*
X133990623Y-92823432D01*
X133961129Y-92888012D01*
X133955000Y-92894595D01*
X132815613Y-94033982D01*
X132804524Y-94043837D01*
X132779376Y-94063662D01*
X132774021Y-94071409D01*
X132774020Y-94071411D01*
X132747640Y-94109581D01*
X132745345Y-94112793D01*
X132712139Y-94157750D01*
X132709857Y-94164247D01*
X132705945Y-94169908D01*
X132703107Y-94178882D01*
X132703106Y-94178884D01*
X132689112Y-94223136D01*
X132687858Y-94226893D01*
X132672468Y-94270716D01*
X132672466Y-94270724D01*
X132669347Y-94279607D01*
X132669077Y-94286486D01*
X132667001Y-94293049D01*
X132666504Y-94299363D01*
X132666504Y-94349481D01*
X132666407Y-94354427D01*
X132664276Y-94408659D01*
X132666091Y-94415502D01*
X132666504Y-94423015D01*
X132666504Y-95796624D01*
X132646502Y-95864745D01*
X132592846Y-95911238D01*
X132522572Y-95921342D01*
X132504405Y-95917342D01*
X132429918Y-95895065D01*
X132417938Y-95891482D01*
X132417936Y-95891482D01*
X132409337Y-95888910D01*
X132400361Y-95888855D01*
X132400360Y-95888855D01*
X132382507Y-95888746D01*
X132314510Y-95868328D01*
X132294182Y-95851843D01*
X130820405Y-94378067D01*
X130786380Y-94315755D01*
X130783500Y-94288972D01*
X130783500Y-90559258D01*
X130785606Y-90539464D01*
X130785811Y-90535111D01*
X130788003Y-90524931D01*
X130784373Y-90494261D01*
X130784058Y-90488918D01*
X130783928Y-90488929D01*
X130783500Y-90483749D01*
X130783500Y-90478550D01*
X130782647Y-90473426D01*
X130782646Y-90473413D01*
X130780573Y-90460960D01*
X130779736Y-90455085D01*
X130775355Y-90418072D01*
X130774131Y-90407731D01*
X130770430Y-90400023D01*
X130769025Y-90391584D01*
X130746712Y-90350231D01*
X130746382Y-90349620D01*
X130743686Y-90344329D01*
X130726477Y-90308491D01*
X130726475Y-90308487D01*
X130723044Y-90301343D01*
X130719689Y-90297351D01*
X130717762Y-90295424D01*
X130716250Y-90293775D01*
X130716015Y-90293340D01*
X130716050Y-90293308D01*
X130715915Y-90293155D01*
X130712983Y-90287721D01*
X130676119Y-90253644D01*
X130672553Y-90250215D01*
X128046111Y-87623773D01*
X128776350Y-87623773D01*
X128777514Y-87632675D01*
X128777514Y-87632678D01*
X128784983Y-87689790D01*
X128795088Y-87767065D01*
X128853289Y-87899339D01*
X128946276Y-88009960D01*
X128953747Y-88014933D01*
X128953748Y-88014934D01*
X129059101Y-88085063D01*
X129059103Y-88085064D01*
X129066574Y-88090037D01*
X129075138Y-88092713D01*
X129075141Y-88092714D01*
X129135542Y-88111584D01*
X129204510Y-88133132D01*
X129348998Y-88135780D01*
X129358711Y-88133132D01*
X129479763Y-88100130D01*
X129479765Y-88100129D01*
X129488422Y-88097769D01*
X129586256Y-88037698D01*
X129603924Y-88026850D01*
X129611572Y-88022154D01*
X129617596Y-88015499D01*
X129619930Y-88013561D01*
X129685118Y-87985436D01*
X129700416Y-87984504D01*
X132427595Y-87984504D01*
X132495716Y-88004506D01*
X132501187Y-88008669D01*
X132502276Y-88009964D01*
X132507179Y-88013228D01*
X132507186Y-88013233D01*
X132615101Y-88085067D01*
X132615103Y-88085068D01*
X132622574Y-88090041D01*
X132631138Y-88092717D01*
X132631141Y-88092718D01*
X132691542Y-88111588D01*
X132760510Y-88133136D01*
X132904998Y-88135784D01*
X132913662Y-88133422D01*
X133035763Y-88100134D01*
X133035765Y-88100133D01*
X133044422Y-88097773D01*
X133101543Y-88062700D01*
X133142263Y-88037698D01*
X133160009Y-88032881D01*
X133162326Y-88027558D01*
X133167662Y-88022239D01*
X133167572Y-88022158D01*
X133214911Y-87969859D01*
X133264551Y-87915018D01*
X133327560Y-87784966D01*
X133351536Y-87642457D01*
X133351688Y-87630004D01*
X133331201Y-87486952D01*
X133271388Y-87355399D01*
X133265530Y-87348600D01*
X133265527Y-87348596D01*
X133182916Y-87252722D01*
X133182913Y-87252720D01*
X133177056Y-87245922D01*
X133055790Y-87167321D01*
X133038908Y-87162272D01*
X132925938Y-87128486D01*
X132925936Y-87128486D01*
X132917337Y-87125914D01*
X132908363Y-87125859D01*
X132908361Y-87125859D01*
X132845082Y-87125473D01*
X132772827Y-87125032D01*
X132764196Y-87127499D01*
X132764194Y-87127499D01*
X132642509Y-87162276D01*
X132642505Y-87162278D01*
X132633879Y-87164743D01*
X132626292Y-87169530D01*
X132626290Y-87169531D01*
X132519254Y-87237066D01*
X132511661Y-87241857D01*
X132507888Y-87246129D01*
X132444555Y-87274376D01*
X132427730Y-87275504D01*
X129700270Y-87275504D01*
X129632149Y-87255502D01*
X129624112Y-87249465D01*
X129621056Y-87245918D01*
X129499790Y-87167317D01*
X129482921Y-87162272D01*
X129369938Y-87128482D01*
X129369936Y-87128482D01*
X129361337Y-87125910D01*
X129352363Y-87125855D01*
X129352361Y-87125855D01*
X129289082Y-87125469D01*
X129216827Y-87125028D01*
X129208196Y-87127495D01*
X129208194Y-87127495D01*
X129086509Y-87162272D01*
X129086505Y-87162274D01*
X129077879Y-87164739D01*
X129070292Y-87169526D01*
X129070290Y-87169527D01*
X128963254Y-87237062D01*
X128955661Y-87241853D01*
X128949718Y-87248582D01*
X128949717Y-87248583D01*
X128892160Y-87313754D01*
X128859999Y-87350170D01*
X128798583Y-87480982D01*
X128797203Y-87489846D01*
X128797202Y-87489849D01*
X128780937Y-87594316D01*
X128776350Y-87623773D01*
X128046111Y-87623773D01*
X128014116Y-87591778D01*
X127980090Y-87529466D01*
X127983653Y-87462911D01*
X128031323Y-87319608D01*
X128031324Y-87319605D01*
X128033270Y-87313754D01*
X128059189Y-87108587D01*
X128059602Y-87079001D01*
X128039422Y-86873190D01*
X127979651Y-86675218D01*
X127882565Y-86492626D01*
X127878674Y-86487856D01*
X127878672Y-86487852D01*
X127755758Y-86337144D01*
X127755755Y-86337141D01*
X127751863Y-86332369D01*
X127744966Y-86326663D01*
X127597271Y-86204479D01*
X127597266Y-86204476D01*
X127592522Y-86200551D01*
X127587103Y-86197621D01*
X127587100Y-86197619D01*
X127416032Y-86105123D01*
X127416027Y-86105121D01*
X127410612Y-86102193D01*
X127213063Y-86041041D01*
X127206938Y-86040397D01*
X127206937Y-86040397D01*
X127013526Y-86020069D01*
X127013524Y-86020069D01*
X127007397Y-86019425D01*
X126881229Y-86030907D01*
X126807591Y-86037608D01*
X126807590Y-86037608D01*
X126801450Y-86038167D01*
X126603066Y-86096555D01*
X126597601Y-86099412D01*
X126425261Y-86189509D01*
X126425257Y-86189512D01*
X126419801Y-86192364D01*
X126258635Y-86321944D01*
X126209717Y-86380243D01*
X126143022Y-86459727D01*
X126083912Y-86499054D01*
X126012925Y-86500180D01*
X125952597Y-86462749D01*
X125922083Y-86398645D01*
X125920500Y-86378736D01*
X125920500Y-85236569D01*
X125940502Y-85168448D01*
X125994158Y-85121955D01*
X126064432Y-85111851D01*
X126129012Y-85141345D01*
X126145245Y-85158305D01*
X126233953Y-85270227D01*
X126233957Y-85270231D01*
X126237786Y-85275062D01*
X126395271Y-85409092D01*
X126575789Y-85509981D01*
X126772466Y-85573885D01*
X126977809Y-85598371D01*
X126983944Y-85597899D01*
X126983946Y-85597899D01*
X127177856Y-85582978D01*
X127177860Y-85582977D01*
X127183998Y-85582505D01*
X127383178Y-85526893D01*
X127388682Y-85524113D01*
X127388684Y-85524112D01*
X127562262Y-85436432D01*
X127562264Y-85436431D01*
X127567763Y-85433653D01*
X127730722Y-85306335D01*
X127734748Y-85301671D01*
X127734751Y-85301668D01*
X127861819Y-85154458D01*
X127861820Y-85154456D01*
X127865848Y-85149790D01*
X127967995Y-84969980D01*
X128033270Y-84773754D01*
X128059189Y-84568587D01*
X128059602Y-84539001D01*
X128039422Y-84333190D01*
X127979651Y-84135218D01*
X127882565Y-83952626D01*
X127878674Y-83947856D01*
X127878672Y-83947852D01*
X127755758Y-83797144D01*
X127755755Y-83797141D01*
X127751863Y-83792369D01*
X127744966Y-83786663D01*
X127597271Y-83664479D01*
X127597266Y-83664476D01*
X127592522Y-83660551D01*
X127587103Y-83657621D01*
X127587100Y-83657619D01*
X127416032Y-83565123D01*
X127416027Y-83565121D01*
X127410612Y-83562193D01*
X127213063Y-83501041D01*
X127206938Y-83500397D01*
X127206937Y-83500397D01*
X127013526Y-83480069D01*
X127013524Y-83480069D01*
X127007397Y-83479425D01*
X126881229Y-83490907D01*
X126807591Y-83497608D01*
X126807590Y-83497608D01*
X126801450Y-83498167D01*
X126603066Y-83556555D01*
X126597601Y-83559412D01*
X126425261Y-83649509D01*
X126425257Y-83649512D01*
X126419801Y-83652364D01*
X126258635Y-83781944D01*
X126209717Y-83840243D01*
X126143022Y-83919727D01*
X126083912Y-83959054D01*
X126012925Y-83960180D01*
X125952597Y-83922749D01*
X125922083Y-83858645D01*
X125920500Y-83838736D01*
X125920500Y-82696569D01*
X125940502Y-82628448D01*
X125994158Y-82581955D01*
X126064432Y-82571851D01*
X126129012Y-82601345D01*
X126145245Y-82618305D01*
X126233953Y-82730227D01*
X126233957Y-82730231D01*
X126237786Y-82735062D01*
X126395271Y-82869092D01*
X126575789Y-82969981D01*
X126772466Y-83033885D01*
X126977809Y-83058371D01*
X126983944Y-83057899D01*
X126983946Y-83057899D01*
X127177856Y-83042978D01*
X127177860Y-83042977D01*
X127183998Y-83042505D01*
X127383178Y-82986893D01*
X127388682Y-82984113D01*
X127388684Y-82984112D01*
X127562262Y-82896432D01*
X127562264Y-82896431D01*
X127567763Y-82893653D01*
X127730722Y-82766335D01*
X127734748Y-82761671D01*
X127734751Y-82761668D01*
X127861819Y-82614458D01*
X127861820Y-82614456D01*
X127865848Y-82609790D01*
X127967995Y-82429980D01*
X128033270Y-82233754D01*
X128059189Y-82028587D01*
X128059602Y-81999001D01*
X128039422Y-81793190D01*
X127979651Y-81595218D01*
X127882565Y-81412626D01*
X127878674Y-81407856D01*
X127878672Y-81407852D01*
X127755758Y-81257144D01*
X127755755Y-81257141D01*
X127751863Y-81252369D01*
X127744966Y-81246663D01*
X127597271Y-81124479D01*
X127597266Y-81124476D01*
X127592522Y-81120551D01*
X127587103Y-81117621D01*
X127587100Y-81117619D01*
X127416032Y-81025123D01*
X127416027Y-81025121D01*
X127410612Y-81022193D01*
X127213063Y-80961041D01*
X127206938Y-80960397D01*
X127206937Y-80960397D01*
X127013526Y-80940069D01*
X127013524Y-80940069D01*
X127007397Y-80939425D01*
X126881229Y-80950907D01*
X126807591Y-80957608D01*
X126807590Y-80957608D01*
X126801450Y-80958167D01*
X126603066Y-81016555D01*
X126597601Y-81019412D01*
X126425261Y-81109509D01*
X126425257Y-81109512D01*
X126419801Y-81112364D01*
X126258635Y-81241944D01*
X126209717Y-81300243D01*
X126143022Y-81379727D01*
X126083912Y-81419054D01*
X126012925Y-81420180D01*
X125952597Y-81382749D01*
X125922083Y-81318645D01*
X125920500Y-81298736D01*
X125920500Y-80610046D01*
X125940502Y-80541925D01*
X125994158Y-80495432D01*
X126064432Y-80485328D01*
X126091921Y-80492870D01*
X126100699Y-80498735D01*
X126174933Y-80513501D01*
X126999866Y-80513501D01*
X127825066Y-80513500D01*
X127860818Y-80506389D01*
X127887126Y-80501157D01*
X127887128Y-80501156D01*
X127899301Y-80498735D01*
X127909621Y-80491840D01*
X127909622Y-80491839D01*
X127973168Y-80449378D01*
X127983484Y-80442485D01*
X128039734Y-80358302D01*
X128054500Y-80284068D01*
X128054499Y-78633935D01*
X128047388Y-78598183D01*
X128042156Y-78571875D01*
X128042155Y-78571873D01*
X128039734Y-78559700D01*
X128021399Y-78532259D01*
X127990377Y-78485833D01*
X127983484Y-78475517D01*
X127964398Y-78462764D01*
X127918871Y-78408286D01*
X127910025Y-78337843D01*
X127940667Y-78273799D01*
X128001069Y-78236489D01*
X128034402Y-78232000D01*
X133269801Y-78232000D01*
X133337922Y-78252002D01*
G37*
G04 #@! TD.AperFunction*
G04 #@! TD*
M02*
