M48
; DRILL file {KiCad (6.0.7)} date Mon Aug 15 11:05:18 2022
; FORMAT={-:-/ absolute / metric / decimal}
; #@! TF.CreationDate,2022-08-15T11:05:18+01:00
; #@! TF.GenerationSoftware,Kicad,Pcbnew,(6.0.7)
; #@! TF.FileFunction,Plated,1,2,PTH
FMAT,2
METRIC
; #@! TA.AperFunction,Plated,PTH,ViaDrill
T1C0.300
; #@! TA.AperFunction,Plated,PTH,ComponentDrill
T2C0.800
; #@! TA.AperFunction,Plated,PTH,ComponentDrill
T3C1.200
%
G90
G05
T1
X128.27Y-81.28
X129.286Y-87.63
X132.334Y-96.393
X132.334Y-97.666
X132.334Y-98.933
X132.334Y-100.203
X132.334Y-101.473
X132.334Y-102.743
X132.334Y-104.013
X132.334Y-105.283
X132.842Y-87.63
X133.096Y-97.041
X137.414Y-98.298
X137.414Y-99.568
X137.414Y-100.838
X137.414Y-103.378
X137.414Y-104.648
X137.541Y-95.758
X140.462Y-87.376
X140.97Y-81.28
T2
X127.0Y-79.459
X127.0Y-81.999
X127.0Y-84.539
X127.0Y-87.079
X127.0Y-89.619
X127.0Y-92.159
X127.0Y-94.699
X127.0Y-97.239
X127.0Y-99.779
X127.0Y-102.319
X127.0Y-104.859
X127.0Y-107.399
X142.24Y-79.459
X142.24Y-81.999
X142.24Y-84.539
X142.24Y-87.079
X142.24Y-89.619
X142.24Y-92.159
X142.24Y-94.699
X142.24Y-97.239
X142.24Y-99.779
X142.24Y-102.319
X142.24Y-104.859
X142.24Y-107.399
T3
X134.62Y-94.525
X134.62Y-102.025
T0
M30
