%TF.GenerationSoftware,KiCad,Pcbnew,(6.0.7)*%
%TF.CreationDate,2022-08-15T11:05:21+01:00*%
%TF.ProjectId,nwX287,6e775832-3837-42e6-9b69-6361645f7063,1a*%
%TF.SameCoordinates,Original*%
%TF.FileFunction,Drillmap*%
%TF.FilePolarity,Positive*%
%FSLAX45Y45*%
G04 Gerber Fmt 4.5, Leading zero omitted, Abs format (unit mm)*
G04 Created by KiCad (PCBNEW (6.0.7)) date 2022-08-15 11:05:21*
%MOMM*%
%LPD*%
G01*
G04 APERTURE LIST*
%ADD10C,0.050000*%
%ADD11C,0.200000*%
%ADD12C,0.030000*%
%ADD13C,0.080000*%
%ADD14C,0.120000*%
G04 APERTURE END LIST*
D10*
X12547600Y-7791450D02*
X13360400Y-7791450D01*
X13360400Y-7791450D02*
G75*
G03*
X13563600Y-7791450I101600J-6350D01*
G01*
X12547600Y-10896600D02*
X12547600Y-7791450D01*
X14376400Y-10896600D02*
X12547600Y-10896600D01*
X14376400Y-7791450D02*
X14376400Y-10896600D01*
X13563600Y-7791450D02*
X14376400Y-7791450D01*
D11*
D12*
X12812000Y-8113000D02*
X12842000Y-8143000D01*
X12842000Y-8113000D02*
X12812000Y-8143000D01*
X12913600Y-8748000D02*
X12943600Y-8778000D01*
X12943600Y-8748000D02*
X12913600Y-8778000D01*
X13218400Y-9624300D02*
X13248400Y-9654300D01*
X13248400Y-9624300D02*
X13218400Y-9654300D01*
X13218400Y-9751571D02*
X13248400Y-9781571D01*
X13248400Y-9751571D02*
X13218400Y-9781571D01*
X13218400Y-9878300D02*
X13248400Y-9908300D01*
X13248400Y-9878300D02*
X13218400Y-9908300D01*
X13218400Y-10005300D02*
X13248400Y-10035300D01*
X13248400Y-10005300D02*
X13218400Y-10035300D01*
X13218400Y-10132300D02*
X13248400Y-10162300D01*
X13248400Y-10132300D02*
X13218400Y-10162300D01*
X13218400Y-10259300D02*
X13248400Y-10289300D01*
X13248400Y-10259300D02*
X13218400Y-10289300D01*
X13218400Y-10386300D02*
X13248400Y-10416300D01*
X13248400Y-10386300D02*
X13218400Y-10416300D01*
X13218400Y-10513300D02*
X13248400Y-10543300D01*
X13248400Y-10513300D02*
X13218400Y-10543300D01*
X13269200Y-8748000D02*
X13299200Y-8778000D01*
X13299200Y-8748000D02*
X13269200Y-8778000D01*
X13294600Y-9689070D02*
X13324600Y-9719070D01*
X13324600Y-9689070D02*
X13294600Y-9719070D01*
X13726400Y-9814800D02*
X13756400Y-9844800D01*
X13756400Y-9814800D02*
X13726400Y-9844800D01*
X13726400Y-9941800D02*
X13756400Y-9971800D01*
X13756400Y-9941800D02*
X13726400Y-9971800D01*
X13726400Y-10068800D02*
X13756400Y-10098800D01*
X13756400Y-10068800D02*
X13726400Y-10098800D01*
X13726400Y-10322800D02*
X13756400Y-10352800D01*
X13756400Y-10322800D02*
X13726400Y-10352800D01*
X13726400Y-10449800D02*
X13756400Y-10479800D01*
X13756400Y-10449800D02*
X13726400Y-10479800D01*
X13739100Y-9560800D02*
X13769100Y-9590800D01*
X13769100Y-9560800D02*
X13739100Y-9590800D01*
X14031200Y-8722600D02*
X14061200Y-8752600D01*
X14061200Y-8722600D02*
X14031200Y-8752600D01*
X14082000Y-8113000D02*
X14112000Y-8143000D01*
X14112000Y-8113000D02*
X14082000Y-8143000D01*
D13*
X12740000Y-7945900D02*
G75*
G03*
X12740000Y-7945900I-40000J0D01*
G01*
X12740000Y-8199900D02*
G75*
G03*
X12740000Y-8199900I-40000J0D01*
G01*
X12740000Y-8453900D02*
G75*
G03*
X12740000Y-8453900I-40000J0D01*
G01*
X12740000Y-8707900D02*
G75*
G03*
X12740000Y-8707900I-40000J0D01*
G01*
X12740000Y-8961900D02*
G75*
G03*
X12740000Y-8961900I-40000J0D01*
G01*
X12740000Y-9215900D02*
G75*
G03*
X12740000Y-9215900I-40000J0D01*
G01*
X12740000Y-9469900D02*
G75*
G03*
X12740000Y-9469900I-40000J0D01*
G01*
X12740000Y-9723900D02*
G75*
G03*
X12740000Y-9723900I-40000J0D01*
G01*
X12740000Y-9977900D02*
G75*
G03*
X12740000Y-9977900I-40000J0D01*
G01*
X12740000Y-10231900D02*
G75*
G03*
X12740000Y-10231900I-40000J0D01*
G01*
X12740000Y-10485900D02*
G75*
G03*
X12740000Y-10485900I-40000J0D01*
G01*
X12740000Y-10739900D02*
G75*
G03*
X12740000Y-10739900I-40000J0D01*
G01*
X14264000Y-7945900D02*
G75*
G03*
X14264000Y-7945900I-40000J0D01*
G01*
X14264000Y-8199900D02*
G75*
G03*
X14264000Y-8199900I-40000J0D01*
G01*
X14264000Y-8453900D02*
G75*
G03*
X14264000Y-8453900I-40000J0D01*
G01*
X14264000Y-8707900D02*
G75*
G03*
X14264000Y-8707900I-40000J0D01*
G01*
X14264000Y-8961900D02*
G75*
G03*
X14264000Y-8961900I-40000J0D01*
G01*
X14264000Y-9215900D02*
G75*
G03*
X14264000Y-9215900I-40000J0D01*
G01*
X14264000Y-9469900D02*
G75*
G03*
X14264000Y-9469900I-40000J0D01*
G01*
X14264000Y-9723900D02*
G75*
G03*
X14264000Y-9723900I-40000J0D01*
G01*
X14264000Y-9977900D02*
G75*
G03*
X14264000Y-9977900I-40000J0D01*
G01*
X14264000Y-10231900D02*
G75*
G03*
X14264000Y-10231900I-40000J0D01*
G01*
X14264000Y-10485900D02*
G75*
G03*
X14264000Y-10485900I-40000J0D01*
G01*
X14264000Y-10739900D02*
G75*
G03*
X14264000Y-10739900I-40000J0D01*
G01*
D14*
X13462000Y-9392500D02*
X13462000Y-9512500D01*
X13402000Y-9452500D02*
X13522000Y-9452500D01*
X13462000Y-10142500D02*
X13462000Y-10262500D01*
X13402000Y-10202500D02*
X13522000Y-10202500D01*
D11*
X12802719Y-11209576D02*
X12802719Y-11009576D01*
X12850338Y-11009576D01*
X12878909Y-11019100D01*
X12897957Y-11038148D01*
X12907481Y-11057195D01*
X12917005Y-11095290D01*
X12917005Y-11123862D01*
X12907481Y-11161957D01*
X12897957Y-11181005D01*
X12878909Y-11200052D01*
X12850338Y-11209576D01*
X12802719Y-11209576D01*
X13002719Y-11209576D02*
X13002719Y-11076243D01*
X13002719Y-11114338D02*
X13012243Y-11095290D01*
X13021767Y-11085767D01*
X13040814Y-11076243D01*
X13059862Y-11076243D01*
X13126528Y-11209576D02*
X13126528Y-11076243D01*
X13126528Y-11009576D02*
X13117005Y-11019100D01*
X13126528Y-11028624D01*
X13136052Y-11019100D01*
X13126528Y-11009576D01*
X13126528Y-11028624D01*
X13250338Y-11209576D02*
X13231290Y-11200052D01*
X13221767Y-11181005D01*
X13221767Y-11009576D01*
X13355100Y-11209576D02*
X13336052Y-11200052D01*
X13326528Y-11181005D01*
X13326528Y-11009576D01*
X13583671Y-11209576D02*
X13583671Y-11009576D01*
X13650338Y-11152433D01*
X13717005Y-11009576D01*
X13717005Y-11209576D01*
X13897957Y-11209576D02*
X13897957Y-11104814D01*
X13888433Y-11085767D01*
X13869386Y-11076243D01*
X13831290Y-11076243D01*
X13812243Y-11085767D01*
X13897957Y-11200052D02*
X13878909Y-11209576D01*
X13831290Y-11209576D01*
X13812243Y-11200052D01*
X13802719Y-11181005D01*
X13802719Y-11161957D01*
X13812243Y-11142910D01*
X13831290Y-11133386D01*
X13878909Y-11133386D01*
X13897957Y-11123862D01*
X13993195Y-11076243D02*
X13993195Y-11276243D01*
X13993195Y-11085767D02*
X14012243Y-11076243D01*
X14050338Y-11076243D01*
X14069386Y-11085767D01*
X14078909Y-11095290D01*
X14088433Y-11114338D01*
X14088433Y-11171481D01*
X14078909Y-11190528D01*
X14069386Y-11200052D01*
X14050338Y-11209576D01*
X14012243Y-11209576D01*
X13993195Y-11200052D01*
X14174148Y-11190528D02*
X14183671Y-11200052D01*
X14174148Y-11209576D01*
X14164624Y-11200052D01*
X14174148Y-11190528D01*
X14174148Y-11209576D01*
X14174148Y-11085767D02*
X14183671Y-11095290D01*
X14174148Y-11104814D01*
X14164624Y-11095290D01*
X14174148Y-11085767D01*
X14174148Y-11104814D01*
D12*
X12515100Y-11524100D02*
X12545100Y-11554100D01*
X12545100Y-11524100D02*
X12515100Y-11554100D01*
D11*
X12840814Y-11429576D02*
X12859862Y-11429576D01*
X12878909Y-11439100D01*
X12888433Y-11448624D01*
X12897957Y-11467671D01*
X12907481Y-11505767D01*
X12907481Y-11553386D01*
X12897957Y-11591481D01*
X12888433Y-11610528D01*
X12878909Y-11620052D01*
X12859862Y-11629576D01*
X12840814Y-11629576D01*
X12821767Y-11620052D01*
X12812243Y-11610528D01*
X12802719Y-11591481D01*
X12793195Y-11553386D01*
X12793195Y-11505767D01*
X12802719Y-11467671D01*
X12812243Y-11448624D01*
X12821767Y-11439100D01*
X12840814Y-11429576D01*
X12993195Y-11610528D02*
X13002719Y-11620052D01*
X12993195Y-11629576D01*
X12983671Y-11620052D01*
X12993195Y-11610528D01*
X12993195Y-11629576D01*
X13069386Y-11429576D02*
X13193195Y-11429576D01*
X13126528Y-11505767D01*
X13155100Y-11505767D01*
X13174148Y-11515290D01*
X13183671Y-11524814D01*
X13193195Y-11543862D01*
X13193195Y-11591481D01*
X13183671Y-11610528D01*
X13174148Y-11620052D01*
X13155100Y-11629576D01*
X13097957Y-11629576D01*
X13078909Y-11620052D01*
X13069386Y-11610528D01*
X13317005Y-11429576D02*
X13336052Y-11429576D01*
X13355100Y-11439100D01*
X13364624Y-11448624D01*
X13374148Y-11467671D01*
X13383671Y-11505767D01*
X13383671Y-11553386D01*
X13374148Y-11591481D01*
X13364624Y-11610528D01*
X13355100Y-11620052D01*
X13336052Y-11629576D01*
X13317005Y-11629576D01*
X13297957Y-11620052D01*
X13288433Y-11610528D01*
X13278909Y-11591481D01*
X13269386Y-11553386D01*
X13269386Y-11505767D01*
X13278909Y-11467671D01*
X13288433Y-11448624D01*
X13297957Y-11439100D01*
X13317005Y-11429576D01*
X13507481Y-11429576D02*
X13526528Y-11429576D01*
X13545576Y-11439100D01*
X13555100Y-11448624D01*
X13564624Y-11467671D01*
X13574148Y-11505767D01*
X13574148Y-11553386D01*
X13564624Y-11591481D01*
X13555100Y-11610528D01*
X13545576Y-11620052D01*
X13526528Y-11629576D01*
X13507481Y-11629576D01*
X13488433Y-11620052D01*
X13478909Y-11610528D01*
X13469386Y-11591481D01*
X13459862Y-11553386D01*
X13459862Y-11505767D01*
X13469386Y-11467671D01*
X13478909Y-11448624D01*
X13488433Y-11439100D01*
X13507481Y-11429576D01*
X13659862Y-11629576D02*
X13659862Y-11496243D01*
X13659862Y-11515290D02*
X13669386Y-11505767D01*
X13688433Y-11496243D01*
X13717005Y-11496243D01*
X13736052Y-11505767D01*
X13745576Y-11524814D01*
X13745576Y-11629576D01*
X13745576Y-11524814D02*
X13755100Y-11505767D01*
X13774148Y-11496243D01*
X13802719Y-11496243D01*
X13821767Y-11505767D01*
X13831290Y-11524814D01*
X13831290Y-11629576D01*
X13926528Y-11629576D02*
X13926528Y-11496243D01*
X13926528Y-11515290D02*
X13936052Y-11505767D01*
X13955100Y-11496243D01*
X13983671Y-11496243D01*
X14002719Y-11505767D01*
X14012243Y-11524814D01*
X14012243Y-11629576D01*
X14012243Y-11524814D02*
X14021767Y-11505767D01*
X14040814Y-11496243D01*
X14069386Y-11496243D01*
X14088433Y-11505767D01*
X14097957Y-11524814D01*
X14097957Y-11629576D01*
X14488433Y-11420052D02*
X14317005Y-11677195D01*
X14745576Y-11429576D02*
X14764624Y-11429576D01*
X14783671Y-11439100D01*
X14793195Y-11448624D01*
X14802719Y-11467671D01*
X14812243Y-11505767D01*
X14812243Y-11553386D01*
X14802719Y-11591481D01*
X14793195Y-11610528D01*
X14783671Y-11620052D01*
X14764624Y-11629576D01*
X14745576Y-11629576D01*
X14726528Y-11620052D01*
X14717005Y-11610528D01*
X14707481Y-11591481D01*
X14697957Y-11553386D01*
X14697957Y-11505767D01*
X14707481Y-11467671D01*
X14717005Y-11448624D01*
X14726528Y-11439100D01*
X14745576Y-11429576D01*
X14897957Y-11610528D02*
X14907481Y-11620052D01*
X14897957Y-11629576D01*
X14888433Y-11620052D01*
X14897957Y-11610528D01*
X14897957Y-11629576D01*
X15031290Y-11429576D02*
X15050338Y-11429576D01*
X15069386Y-11439100D01*
X15078909Y-11448624D01*
X15088433Y-11467671D01*
X15097957Y-11505767D01*
X15097957Y-11553386D01*
X15088433Y-11591481D01*
X15078909Y-11610528D01*
X15069386Y-11620052D01*
X15050338Y-11629576D01*
X15031290Y-11629576D01*
X15012243Y-11620052D01*
X15002719Y-11610528D01*
X14993195Y-11591481D01*
X14983671Y-11553386D01*
X14983671Y-11505767D01*
X14993195Y-11467671D01*
X15002719Y-11448624D01*
X15012243Y-11439100D01*
X15031290Y-11429576D01*
X15288433Y-11629576D02*
X15174148Y-11629576D01*
X15231290Y-11629576D02*
X15231290Y-11429576D01*
X15212243Y-11458148D01*
X15193195Y-11477195D01*
X15174148Y-11486719D01*
X15478909Y-11629576D02*
X15364624Y-11629576D01*
X15421767Y-11629576D02*
X15421767Y-11429576D01*
X15402719Y-11458148D01*
X15383671Y-11477195D01*
X15364624Y-11486719D01*
X15593195Y-11515290D02*
X15574148Y-11505767D01*
X15564624Y-11496243D01*
X15555100Y-11477195D01*
X15555100Y-11467671D01*
X15564624Y-11448624D01*
X15574148Y-11439100D01*
X15593195Y-11429576D01*
X15631290Y-11429576D01*
X15650338Y-11439100D01*
X15659862Y-11448624D01*
X15669386Y-11467671D01*
X15669386Y-11477195D01*
X15659862Y-11496243D01*
X15650338Y-11505767D01*
X15631290Y-11515290D01*
X15593195Y-11515290D01*
X15574148Y-11524814D01*
X15564624Y-11534338D01*
X15555100Y-11553386D01*
X15555100Y-11591481D01*
X15564624Y-11610528D01*
X15574148Y-11620052D01*
X15593195Y-11629576D01*
X15631290Y-11629576D01*
X15650338Y-11620052D01*
X15659862Y-11610528D01*
X15669386Y-11591481D01*
X15669386Y-11553386D01*
X15659862Y-11534338D01*
X15650338Y-11524814D01*
X15631290Y-11515290D01*
X15745576Y-11429576D02*
X15745576Y-11467671D01*
X15821767Y-11429576D02*
X15821767Y-11467671D01*
X16117005Y-11705767D02*
X16107481Y-11696243D01*
X16088433Y-11667671D01*
X16078909Y-11648624D01*
X16069386Y-11620052D01*
X16059862Y-11572433D01*
X16059862Y-11534338D01*
X16069386Y-11486719D01*
X16078909Y-11458148D01*
X16088433Y-11439100D01*
X16107481Y-11410528D01*
X16117005Y-11401005D01*
X16183671Y-11448624D02*
X16193195Y-11439100D01*
X16212243Y-11429576D01*
X16259862Y-11429576D01*
X16278909Y-11439100D01*
X16288433Y-11448624D01*
X16297957Y-11467671D01*
X16297957Y-11486719D01*
X16288433Y-11515290D01*
X16174148Y-11629576D01*
X16297957Y-11629576D01*
X16421767Y-11429576D02*
X16440814Y-11429576D01*
X16459862Y-11439100D01*
X16469386Y-11448624D01*
X16478909Y-11467671D01*
X16488433Y-11505767D01*
X16488433Y-11553386D01*
X16478909Y-11591481D01*
X16469386Y-11610528D01*
X16459862Y-11620052D01*
X16440814Y-11629576D01*
X16421767Y-11629576D01*
X16402719Y-11620052D01*
X16393195Y-11610528D01*
X16383671Y-11591481D01*
X16374148Y-11553386D01*
X16374148Y-11505767D01*
X16383671Y-11467671D01*
X16393195Y-11448624D01*
X16402719Y-11439100D01*
X16421767Y-11429576D01*
X16726528Y-11629576D02*
X16726528Y-11429576D01*
X16812243Y-11629576D02*
X16812243Y-11524814D01*
X16802719Y-11505767D01*
X16783671Y-11496243D01*
X16755100Y-11496243D01*
X16736052Y-11505767D01*
X16726528Y-11515290D01*
X16936052Y-11629576D02*
X16917005Y-11620052D01*
X16907481Y-11610528D01*
X16897957Y-11591481D01*
X16897957Y-11534338D01*
X16907481Y-11515290D01*
X16917005Y-11505767D01*
X16936052Y-11496243D01*
X16964624Y-11496243D01*
X16983671Y-11505767D01*
X16993195Y-11515290D01*
X17002719Y-11534338D01*
X17002719Y-11591481D01*
X16993195Y-11610528D01*
X16983671Y-11620052D01*
X16964624Y-11629576D01*
X16936052Y-11629576D01*
X17117005Y-11629576D02*
X17097957Y-11620052D01*
X17088433Y-11601005D01*
X17088433Y-11429576D01*
X17269386Y-11620052D02*
X17250338Y-11629576D01*
X17212243Y-11629576D01*
X17193195Y-11620052D01*
X17183671Y-11601005D01*
X17183671Y-11524814D01*
X17193195Y-11505767D01*
X17212243Y-11496243D01*
X17250338Y-11496243D01*
X17269386Y-11505767D01*
X17278910Y-11524814D01*
X17278910Y-11543862D01*
X17183671Y-11562909D01*
X17355100Y-11620052D02*
X17374148Y-11629576D01*
X17412243Y-11629576D01*
X17431290Y-11620052D01*
X17440814Y-11601005D01*
X17440814Y-11591481D01*
X17431290Y-11572433D01*
X17412243Y-11562909D01*
X17383671Y-11562909D01*
X17364624Y-11553386D01*
X17355100Y-11534338D01*
X17355100Y-11524814D01*
X17364624Y-11505767D01*
X17383671Y-11496243D01*
X17412243Y-11496243D01*
X17431290Y-11505767D01*
X17507481Y-11705767D02*
X17517005Y-11696243D01*
X17536052Y-11667671D01*
X17545576Y-11648624D01*
X17555100Y-11620052D01*
X17564624Y-11572433D01*
X17564624Y-11534338D01*
X17555100Y-11486719D01*
X17545576Y-11458148D01*
X17536052Y-11439100D01*
X17517005Y-11410528D01*
X17507481Y-11401005D01*
D13*
X12545100Y-11803100D02*
G75*
G03*
X12545100Y-11803100I-40000J0D01*
G01*
D11*
X12840814Y-11693576D02*
X12859862Y-11693576D01*
X12878909Y-11703100D01*
X12888433Y-11712624D01*
X12897957Y-11731671D01*
X12907481Y-11769767D01*
X12907481Y-11817386D01*
X12897957Y-11855481D01*
X12888433Y-11874528D01*
X12878909Y-11884052D01*
X12859862Y-11893576D01*
X12840814Y-11893576D01*
X12821767Y-11884052D01*
X12812243Y-11874528D01*
X12802719Y-11855481D01*
X12793195Y-11817386D01*
X12793195Y-11769767D01*
X12802719Y-11731671D01*
X12812243Y-11712624D01*
X12821767Y-11703100D01*
X12840814Y-11693576D01*
X12993195Y-11874528D02*
X13002719Y-11884052D01*
X12993195Y-11893576D01*
X12983671Y-11884052D01*
X12993195Y-11874528D01*
X12993195Y-11893576D01*
X13117005Y-11779290D02*
X13097957Y-11769767D01*
X13088433Y-11760243D01*
X13078909Y-11741195D01*
X13078909Y-11731671D01*
X13088433Y-11712624D01*
X13097957Y-11703100D01*
X13117005Y-11693576D01*
X13155100Y-11693576D01*
X13174148Y-11703100D01*
X13183671Y-11712624D01*
X13193195Y-11731671D01*
X13193195Y-11741195D01*
X13183671Y-11760243D01*
X13174148Y-11769767D01*
X13155100Y-11779290D01*
X13117005Y-11779290D01*
X13097957Y-11788814D01*
X13088433Y-11798338D01*
X13078909Y-11817386D01*
X13078909Y-11855481D01*
X13088433Y-11874528D01*
X13097957Y-11884052D01*
X13117005Y-11893576D01*
X13155100Y-11893576D01*
X13174148Y-11884052D01*
X13183671Y-11874528D01*
X13193195Y-11855481D01*
X13193195Y-11817386D01*
X13183671Y-11798338D01*
X13174148Y-11788814D01*
X13155100Y-11779290D01*
X13317005Y-11693576D02*
X13336052Y-11693576D01*
X13355100Y-11703100D01*
X13364624Y-11712624D01*
X13374148Y-11731671D01*
X13383671Y-11769767D01*
X13383671Y-11817386D01*
X13374148Y-11855481D01*
X13364624Y-11874528D01*
X13355100Y-11884052D01*
X13336052Y-11893576D01*
X13317005Y-11893576D01*
X13297957Y-11884052D01*
X13288433Y-11874528D01*
X13278909Y-11855481D01*
X13269386Y-11817386D01*
X13269386Y-11769767D01*
X13278909Y-11731671D01*
X13288433Y-11712624D01*
X13297957Y-11703100D01*
X13317005Y-11693576D01*
X13507481Y-11693576D02*
X13526528Y-11693576D01*
X13545576Y-11703100D01*
X13555100Y-11712624D01*
X13564624Y-11731671D01*
X13574148Y-11769767D01*
X13574148Y-11817386D01*
X13564624Y-11855481D01*
X13555100Y-11874528D01*
X13545576Y-11884052D01*
X13526528Y-11893576D01*
X13507481Y-11893576D01*
X13488433Y-11884052D01*
X13478909Y-11874528D01*
X13469386Y-11855481D01*
X13459862Y-11817386D01*
X13459862Y-11769767D01*
X13469386Y-11731671D01*
X13478909Y-11712624D01*
X13488433Y-11703100D01*
X13507481Y-11693576D01*
X13659862Y-11893576D02*
X13659862Y-11760243D01*
X13659862Y-11779290D02*
X13669386Y-11769767D01*
X13688433Y-11760243D01*
X13717005Y-11760243D01*
X13736052Y-11769767D01*
X13745576Y-11788814D01*
X13745576Y-11893576D01*
X13745576Y-11788814D02*
X13755100Y-11769767D01*
X13774148Y-11760243D01*
X13802719Y-11760243D01*
X13821767Y-11769767D01*
X13831290Y-11788814D01*
X13831290Y-11893576D01*
X13926528Y-11893576D02*
X13926528Y-11760243D01*
X13926528Y-11779290D02*
X13936052Y-11769767D01*
X13955100Y-11760243D01*
X13983671Y-11760243D01*
X14002719Y-11769767D01*
X14012243Y-11788814D01*
X14012243Y-11893576D01*
X14012243Y-11788814D02*
X14021767Y-11769767D01*
X14040814Y-11760243D01*
X14069386Y-11760243D01*
X14088433Y-11769767D01*
X14097957Y-11788814D01*
X14097957Y-11893576D01*
X14488433Y-11684052D02*
X14317005Y-11941195D01*
X14745576Y-11693576D02*
X14764624Y-11693576D01*
X14783671Y-11703100D01*
X14793195Y-11712624D01*
X14802719Y-11731671D01*
X14812243Y-11769767D01*
X14812243Y-11817386D01*
X14802719Y-11855481D01*
X14793195Y-11874528D01*
X14783671Y-11884052D01*
X14764624Y-11893576D01*
X14745576Y-11893576D01*
X14726528Y-11884052D01*
X14717005Y-11874528D01*
X14707481Y-11855481D01*
X14697957Y-11817386D01*
X14697957Y-11769767D01*
X14707481Y-11731671D01*
X14717005Y-11712624D01*
X14726528Y-11703100D01*
X14745576Y-11693576D01*
X14897957Y-11874528D02*
X14907481Y-11884052D01*
X14897957Y-11893576D01*
X14888433Y-11884052D01*
X14897957Y-11874528D01*
X14897957Y-11893576D01*
X15031290Y-11693576D02*
X15050338Y-11693576D01*
X15069386Y-11703100D01*
X15078909Y-11712624D01*
X15088433Y-11731671D01*
X15097957Y-11769767D01*
X15097957Y-11817386D01*
X15088433Y-11855481D01*
X15078909Y-11874528D01*
X15069386Y-11884052D01*
X15050338Y-11893576D01*
X15031290Y-11893576D01*
X15012243Y-11884052D01*
X15002719Y-11874528D01*
X14993195Y-11855481D01*
X14983671Y-11817386D01*
X14983671Y-11769767D01*
X14993195Y-11731671D01*
X15002719Y-11712624D01*
X15012243Y-11703100D01*
X15031290Y-11693576D01*
X15164624Y-11693576D02*
X15288433Y-11693576D01*
X15221767Y-11769767D01*
X15250338Y-11769767D01*
X15269386Y-11779290D01*
X15278909Y-11788814D01*
X15288433Y-11807862D01*
X15288433Y-11855481D01*
X15278909Y-11874528D01*
X15269386Y-11884052D01*
X15250338Y-11893576D01*
X15193195Y-11893576D01*
X15174148Y-11884052D01*
X15164624Y-11874528D01*
X15478909Y-11893576D02*
X15364624Y-11893576D01*
X15421767Y-11893576D02*
X15421767Y-11693576D01*
X15402719Y-11722148D01*
X15383671Y-11741195D01*
X15364624Y-11750719D01*
X15659862Y-11693576D02*
X15564624Y-11693576D01*
X15555100Y-11788814D01*
X15564624Y-11779290D01*
X15583671Y-11769767D01*
X15631290Y-11769767D01*
X15650338Y-11779290D01*
X15659862Y-11788814D01*
X15669386Y-11807862D01*
X15669386Y-11855481D01*
X15659862Y-11874528D01*
X15650338Y-11884052D01*
X15631290Y-11893576D01*
X15583671Y-11893576D01*
X15564624Y-11884052D01*
X15555100Y-11874528D01*
X15745576Y-11693576D02*
X15745576Y-11731671D01*
X15821767Y-11693576D02*
X15821767Y-11731671D01*
X16117005Y-11969767D02*
X16107481Y-11960243D01*
X16088433Y-11931671D01*
X16078909Y-11912624D01*
X16069386Y-11884052D01*
X16059862Y-11836433D01*
X16059862Y-11798338D01*
X16069386Y-11750719D01*
X16078909Y-11722148D01*
X16088433Y-11703100D01*
X16107481Y-11674528D01*
X16117005Y-11665005D01*
X16183671Y-11712624D02*
X16193195Y-11703100D01*
X16212243Y-11693576D01*
X16259862Y-11693576D01*
X16278909Y-11703100D01*
X16288433Y-11712624D01*
X16297957Y-11731671D01*
X16297957Y-11750719D01*
X16288433Y-11779290D01*
X16174148Y-11893576D01*
X16297957Y-11893576D01*
X16469386Y-11760243D02*
X16469386Y-11893576D01*
X16421767Y-11684052D02*
X16374148Y-11826909D01*
X16497957Y-11826909D01*
X16726528Y-11893576D02*
X16726528Y-11693576D01*
X16812243Y-11893576D02*
X16812243Y-11788814D01*
X16802719Y-11769767D01*
X16783671Y-11760243D01*
X16755100Y-11760243D01*
X16736052Y-11769767D01*
X16726528Y-11779290D01*
X16936052Y-11893576D02*
X16917005Y-11884052D01*
X16907481Y-11874528D01*
X16897957Y-11855481D01*
X16897957Y-11798338D01*
X16907481Y-11779290D01*
X16917005Y-11769767D01*
X16936052Y-11760243D01*
X16964624Y-11760243D01*
X16983671Y-11769767D01*
X16993195Y-11779290D01*
X17002719Y-11798338D01*
X17002719Y-11855481D01*
X16993195Y-11874528D01*
X16983671Y-11884052D01*
X16964624Y-11893576D01*
X16936052Y-11893576D01*
X17117005Y-11893576D02*
X17097957Y-11884052D01*
X17088433Y-11865005D01*
X17088433Y-11693576D01*
X17269386Y-11884052D02*
X17250338Y-11893576D01*
X17212243Y-11893576D01*
X17193195Y-11884052D01*
X17183671Y-11865005D01*
X17183671Y-11788814D01*
X17193195Y-11769767D01*
X17212243Y-11760243D01*
X17250338Y-11760243D01*
X17269386Y-11769767D01*
X17278910Y-11788814D01*
X17278910Y-11807862D01*
X17183671Y-11826909D01*
X17355100Y-11884052D02*
X17374148Y-11893576D01*
X17412243Y-11893576D01*
X17431290Y-11884052D01*
X17440814Y-11865005D01*
X17440814Y-11855481D01*
X17431290Y-11836433D01*
X17412243Y-11826909D01*
X17383671Y-11826909D01*
X17364624Y-11817386D01*
X17355100Y-11798338D01*
X17355100Y-11788814D01*
X17364624Y-11769767D01*
X17383671Y-11760243D01*
X17412243Y-11760243D01*
X17431290Y-11769767D01*
X17507481Y-11969767D02*
X17517005Y-11960243D01*
X17536052Y-11931671D01*
X17545576Y-11912624D01*
X17555100Y-11884052D01*
X17564624Y-11836433D01*
X17564624Y-11798338D01*
X17555100Y-11750719D01*
X17545576Y-11722148D01*
X17536052Y-11703100D01*
X17517005Y-11674528D01*
X17507481Y-11665005D01*
D14*
X12485100Y-12007100D02*
X12485100Y-12127100D01*
X12425100Y-12067100D02*
X12545100Y-12067100D01*
D11*
X12907481Y-12157576D02*
X12793195Y-12157576D01*
X12850338Y-12157576D02*
X12850338Y-11957576D01*
X12831290Y-11986148D01*
X12812243Y-12005195D01*
X12793195Y-12014719D01*
X12993195Y-12138528D02*
X13002719Y-12148052D01*
X12993195Y-12157576D01*
X12983671Y-12148052D01*
X12993195Y-12138528D01*
X12993195Y-12157576D01*
X13078909Y-11976624D02*
X13088433Y-11967100D01*
X13107481Y-11957576D01*
X13155100Y-11957576D01*
X13174148Y-11967100D01*
X13183671Y-11976624D01*
X13193195Y-11995671D01*
X13193195Y-12014719D01*
X13183671Y-12043290D01*
X13069386Y-12157576D01*
X13193195Y-12157576D01*
X13317005Y-11957576D02*
X13336052Y-11957576D01*
X13355100Y-11967100D01*
X13364624Y-11976624D01*
X13374148Y-11995671D01*
X13383671Y-12033767D01*
X13383671Y-12081386D01*
X13374148Y-12119481D01*
X13364624Y-12138528D01*
X13355100Y-12148052D01*
X13336052Y-12157576D01*
X13317005Y-12157576D01*
X13297957Y-12148052D01*
X13288433Y-12138528D01*
X13278909Y-12119481D01*
X13269386Y-12081386D01*
X13269386Y-12033767D01*
X13278909Y-11995671D01*
X13288433Y-11976624D01*
X13297957Y-11967100D01*
X13317005Y-11957576D01*
X13507481Y-11957576D02*
X13526528Y-11957576D01*
X13545576Y-11967100D01*
X13555100Y-11976624D01*
X13564624Y-11995671D01*
X13574148Y-12033767D01*
X13574148Y-12081386D01*
X13564624Y-12119481D01*
X13555100Y-12138528D01*
X13545576Y-12148052D01*
X13526528Y-12157576D01*
X13507481Y-12157576D01*
X13488433Y-12148052D01*
X13478909Y-12138528D01*
X13469386Y-12119481D01*
X13459862Y-12081386D01*
X13459862Y-12033767D01*
X13469386Y-11995671D01*
X13478909Y-11976624D01*
X13488433Y-11967100D01*
X13507481Y-11957576D01*
X13659862Y-12157576D02*
X13659862Y-12024243D01*
X13659862Y-12043290D02*
X13669386Y-12033767D01*
X13688433Y-12024243D01*
X13717005Y-12024243D01*
X13736052Y-12033767D01*
X13745576Y-12052814D01*
X13745576Y-12157576D01*
X13745576Y-12052814D02*
X13755100Y-12033767D01*
X13774148Y-12024243D01*
X13802719Y-12024243D01*
X13821767Y-12033767D01*
X13831290Y-12052814D01*
X13831290Y-12157576D01*
X13926528Y-12157576D02*
X13926528Y-12024243D01*
X13926528Y-12043290D02*
X13936052Y-12033767D01*
X13955100Y-12024243D01*
X13983671Y-12024243D01*
X14002719Y-12033767D01*
X14012243Y-12052814D01*
X14012243Y-12157576D01*
X14012243Y-12052814D02*
X14021767Y-12033767D01*
X14040814Y-12024243D01*
X14069386Y-12024243D01*
X14088433Y-12033767D01*
X14097957Y-12052814D01*
X14097957Y-12157576D01*
X14488433Y-11948052D02*
X14317005Y-12205195D01*
X14745576Y-11957576D02*
X14764624Y-11957576D01*
X14783671Y-11967100D01*
X14793195Y-11976624D01*
X14802719Y-11995671D01*
X14812243Y-12033767D01*
X14812243Y-12081386D01*
X14802719Y-12119481D01*
X14793195Y-12138528D01*
X14783671Y-12148052D01*
X14764624Y-12157576D01*
X14745576Y-12157576D01*
X14726528Y-12148052D01*
X14717005Y-12138528D01*
X14707481Y-12119481D01*
X14697957Y-12081386D01*
X14697957Y-12033767D01*
X14707481Y-11995671D01*
X14717005Y-11976624D01*
X14726528Y-11967100D01*
X14745576Y-11957576D01*
X14897957Y-12138528D02*
X14907481Y-12148052D01*
X14897957Y-12157576D01*
X14888433Y-12148052D01*
X14897957Y-12138528D01*
X14897957Y-12157576D01*
X15031290Y-11957576D02*
X15050338Y-11957576D01*
X15069386Y-11967100D01*
X15078909Y-11976624D01*
X15088433Y-11995671D01*
X15097957Y-12033767D01*
X15097957Y-12081386D01*
X15088433Y-12119481D01*
X15078909Y-12138528D01*
X15069386Y-12148052D01*
X15050338Y-12157576D01*
X15031290Y-12157576D01*
X15012243Y-12148052D01*
X15002719Y-12138528D01*
X14993195Y-12119481D01*
X14983671Y-12081386D01*
X14983671Y-12033767D01*
X14993195Y-11995671D01*
X15002719Y-11976624D01*
X15012243Y-11967100D01*
X15031290Y-11957576D01*
X15269386Y-12024243D02*
X15269386Y-12157576D01*
X15221767Y-11948052D02*
X15174148Y-12090909D01*
X15297957Y-12090909D01*
X15355100Y-11957576D02*
X15488433Y-11957576D01*
X15402719Y-12157576D01*
X15555100Y-11976624D02*
X15564624Y-11967100D01*
X15583671Y-11957576D01*
X15631290Y-11957576D01*
X15650338Y-11967100D01*
X15659862Y-11976624D01*
X15669386Y-11995671D01*
X15669386Y-12014719D01*
X15659862Y-12043290D01*
X15545576Y-12157576D01*
X15669386Y-12157576D01*
X15745576Y-11957576D02*
X15745576Y-11995671D01*
X15821767Y-11957576D02*
X15821767Y-11995671D01*
X16117005Y-12233767D02*
X16107481Y-12224243D01*
X16088433Y-12195671D01*
X16078909Y-12176624D01*
X16069386Y-12148052D01*
X16059862Y-12100433D01*
X16059862Y-12062338D01*
X16069386Y-12014719D01*
X16078909Y-11986148D01*
X16088433Y-11967100D01*
X16107481Y-11938528D01*
X16117005Y-11929005D01*
X16183671Y-11976624D02*
X16193195Y-11967100D01*
X16212243Y-11957576D01*
X16259862Y-11957576D01*
X16278909Y-11967100D01*
X16288433Y-11976624D01*
X16297957Y-11995671D01*
X16297957Y-12014719D01*
X16288433Y-12043290D01*
X16174148Y-12157576D01*
X16297957Y-12157576D01*
X16536052Y-12157576D02*
X16536052Y-11957576D01*
X16621767Y-12157576D02*
X16621767Y-12052814D01*
X16612243Y-12033767D01*
X16593195Y-12024243D01*
X16564624Y-12024243D01*
X16545576Y-12033767D01*
X16536052Y-12043290D01*
X16745576Y-12157576D02*
X16726528Y-12148052D01*
X16717005Y-12138528D01*
X16707481Y-12119481D01*
X16707481Y-12062338D01*
X16717005Y-12043290D01*
X16726528Y-12033767D01*
X16745576Y-12024243D01*
X16774148Y-12024243D01*
X16793195Y-12033767D01*
X16802719Y-12043290D01*
X16812243Y-12062338D01*
X16812243Y-12119481D01*
X16802719Y-12138528D01*
X16793195Y-12148052D01*
X16774148Y-12157576D01*
X16745576Y-12157576D01*
X16926529Y-12157576D02*
X16907481Y-12148052D01*
X16897957Y-12129005D01*
X16897957Y-11957576D01*
X17078910Y-12148052D02*
X17059862Y-12157576D01*
X17021767Y-12157576D01*
X17002719Y-12148052D01*
X16993195Y-12129005D01*
X16993195Y-12052814D01*
X17002719Y-12033767D01*
X17021767Y-12024243D01*
X17059862Y-12024243D01*
X17078910Y-12033767D01*
X17088433Y-12052814D01*
X17088433Y-12071862D01*
X16993195Y-12090909D01*
X17164624Y-12148052D02*
X17183671Y-12157576D01*
X17221767Y-12157576D01*
X17240814Y-12148052D01*
X17250338Y-12129005D01*
X17250338Y-12119481D01*
X17240814Y-12100433D01*
X17221767Y-12090909D01*
X17193195Y-12090909D01*
X17174148Y-12081386D01*
X17164624Y-12062338D01*
X17164624Y-12052814D01*
X17174148Y-12033767D01*
X17193195Y-12024243D01*
X17221767Y-12024243D01*
X17240814Y-12033767D01*
X17317005Y-12233767D02*
X17326529Y-12224243D01*
X17345576Y-12195671D01*
X17355100Y-12176624D01*
X17364624Y-12148052D01*
X17374148Y-12100433D01*
X17374148Y-12062338D01*
X17364624Y-12014719D01*
X17355100Y-11986148D01*
X17345576Y-11967100D01*
X17326529Y-11938528D01*
X17317005Y-11929005D01*
M02*
