G04 #@! TF.GenerationSoftware,KiCad,Pcbnew,(6.0.7)*
G04 #@! TF.CreationDate,2022-08-15T11:05:51+01:00*
G04 #@! TF.ProjectId,nwX287,6e775832-3837-42e6-9b69-6361645f7063,1a*
G04 #@! TF.SameCoordinates,Original*
G04 #@! TF.FileFunction,Soldermask,Top*
G04 #@! TF.FilePolarity,Negative*
%FSLAX46Y46*%
G04 Gerber Fmt 4.6, Leading zero omitted, Abs format (unit mm)*
G04 Created by KiCad (PCBNEW (6.0.7)) date 2022-08-15 11:05:51*
%MOMM*%
%LPD*%
G01*
G04 APERTURE LIST*
%ADD10C,0.250000*%
%ADD11C,0.350000*%
%ADD12R,2.300000X4.000000*%
%ADD13O,1.600000X1.600000*%
%ADD14R,1.600000X1.600000*%
G04 APERTURE END LIST*
D10*
X128820000Y-86113047D02*
X128820000Y-84413047D01*
X128820000Y-85060666D02*
X128934285Y-84979714D01*
X129162857Y-84979714D01*
X129277142Y-85060666D01*
X129334285Y-85141619D01*
X129391428Y-85303523D01*
X129391428Y-85789238D01*
X129334285Y-85951142D01*
X129277142Y-86032095D01*
X129162857Y-86113047D01*
X128934285Y-86113047D01*
X128820000Y-86032095D01*
X129791428Y-84979714D02*
X130077142Y-86113047D01*
X130362857Y-84979714D02*
X130077142Y-86113047D01*
X129962857Y-86517809D01*
X129905714Y-86598761D01*
X129791428Y-86679714D01*
X131734285Y-86113047D02*
X131734285Y-84413047D01*
X132420000Y-86113047D01*
X132420000Y-84413047D01*
X133448571Y-86032095D02*
X133334285Y-86113047D01*
X133105714Y-86113047D01*
X132991428Y-86032095D01*
X132934285Y-85870190D01*
X132934285Y-85222571D01*
X132991428Y-85060666D01*
X133105714Y-84979714D01*
X133334285Y-84979714D01*
X133448571Y-85060666D01*
X133505714Y-85222571D01*
X133505714Y-85384476D01*
X132934285Y-85546380D01*
X134534285Y-86032095D02*
X134420000Y-86113047D01*
X134191428Y-86113047D01*
X134077142Y-86032095D01*
X134020000Y-85951142D01*
X133962857Y-85789238D01*
X133962857Y-85303523D01*
X134020000Y-85141619D01*
X134077142Y-85060666D01*
X134191428Y-84979714D01*
X134420000Y-84979714D01*
X134534285Y-85060666D01*
X135048571Y-86113047D02*
X135048571Y-84979714D01*
X135048571Y-85303523D02*
X135105714Y-85141619D01*
X135162857Y-85060666D01*
X135277142Y-84979714D01*
X135391428Y-84979714D01*
X135962857Y-86113047D02*
X135848571Y-86032095D01*
X135791428Y-85951142D01*
X135734285Y-85789238D01*
X135734285Y-85303523D01*
X135791428Y-85141619D01*
X135848571Y-85060666D01*
X135962857Y-84979714D01*
X136134285Y-84979714D01*
X136248571Y-85060666D01*
X136305714Y-85141619D01*
X136362857Y-85303523D01*
X136362857Y-85789238D01*
X136305714Y-85951142D01*
X136248571Y-86032095D01*
X136134285Y-86113047D01*
X135962857Y-86113047D01*
X136762857Y-84979714D02*
X136991428Y-86113047D01*
X137220000Y-85303523D01*
X137448571Y-86113047D01*
X137677142Y-84979714D01*
X138648571Y-86113047D02*
X138648571Y-85222571D01*
X138591428Y-85060666D01*
X138477142Y-84979714D01*
X138248571Y-84979714D01*
X138134285Y-85060666D01*
X138648571Y-86032095D02*
X138534285Y-86113047D01*
X138248571Y-86113047D01*
X138134285Y-86032095D01*
X138077142Y-85870190D01*
X138077142Y-85708285D01*
X138134285Y-85546380D01*
X138248571Y-85465428D01*
X138534285Y-85465428D01*
X138648571Y-85384476D01*
X139220000Y-86113047D02*
X139220000Y-84979714D01*
X139220000Y-85303523D02*
X139277142Y-85141619D01*
X139334285Y-85060666D01*
X139448571Y-84979714D01*
X139562857Y-84979714D01*
X140420000Y-86032095D02*
X140305714Y-86113047D01*
X140077142Y-86113047D01*
X139962857Y-86032095D01*
X139905714Y-85870190D01*
X139905714Y-85222571D01*
X139962857Y-85060666D01*
X140077142Y-84979714D01*
X140305714Y-84979714D01*
X140420000Y-85060666D01*
X140477142Y-85222571D01*
X140477142Y-85384476D01*
X139905714Y-85546380D01*
D11*
X129989857Y-82164285D02*
X129989857Y-83364285D01*
X129989857Y-82335714D02*
X130075571Y-82250000D01*
X130247000Y-82164285D01*
X130504142Y-82164285D01*
X130675571Y-82250000D01*
X130761285Y-82421428D01*
X130761285Y-83364285D01*
X131447000Y-82164285D02*
X131789857Y-83364285D01*
X132132714Y-82507142D01*
X132475571Y-83364285D01*
X132818428Y-82164285D01*
X133332714Y-81564285D02*
X134532714Y-83364285D01*
X134532714Y-81564285D02*
X133332714Y-83364285D01*
X135132714Y-81735714D02*
X135218428Y-81650000D01*
X135389857Y-81564285D01*
X135818428Y-81564285D01*
X135989857Y-81650000D01*
X136075571Y-81735714D01*
X136161285Y-81907142D01*
X136161285Y-82078571D01*
X136075571Y-82335714D01*
X135047000Y-83364285D01*
X136161285Y-83364285D01*
X137189857Y-82335714D02*
X137018428Y-82250000D01*
X136932714Y-82164285D01*
X136847000Y-81992857D01*
X136847000Y-81907142D01*
X136932714Y-81735714D01*
X137018428Y-81650000D01*
X137189857Y-81564285D01*
X137532714Y-81564285D01*
X137704142Y-81650000D01*
X137789857Y-81735714D01*
X137875571Y-81907142D01*
X137875571Y-81992857D01*
X137789857Y-82164285D01*
X137704142Y-82250000D01*
X137532714Y-82335714D01*
X137189857Y-82335714D01*
X137018428Y-82421428D01*
X136932714Y-82507142D01*
X136847000Y-82678571D01*
X136847000Y-83021428D01*
X136932714Y-83192857D01*
X137018428Y-83278571D01*
X137189857Y-83364285D01*
X137532714Y-83364285D01*
X137704142Y-83278571D01*
X137789857Y-83192857D01*
X137875571Y-83021428D01*
X137875571Y-82678571D01*
X137789857Y-82507142D01*
X137704142Y-82421428D01*
X137532714Y-82335714D01*
X138475571Y-81564285D02*
X139675571Y-81564285D01*
X138904142Y-83364285D01*
D12*
G04 #@! TO.C,BT1*
X134620000Y-90425000D03*
X134620000Y-106425000D03*
G04 #@! TD*
D13*
G04 #@! TO.C,U2*
X142240000Y-79459001D03*
X127000000Y-107399001D03*
X142240000Y-81999001D03*
X127000000Y-104859001D03*
X142240000Y-84539001D03*
X127000000Y-102319001D03*
X142240000Y-87079001D03*
X127000000Y-99779001D03*
X142240000Y-89619001D03*
X127000000Y-97239001D03*
X142240000Y-92159001D03*
X127000000Y-94699001D03*
X142240000Y-94699001D03*
X127000000Y-92159001D03*
X142240000Y-97239001D03*
X127000000Y-89619001D03*
X142240000Y-99779001D03*
X127000000Y-87079001D03*
X142240000Y-102319001D03*
X127000000Y-84539001D03*
X142240000Y-104859001D03*
X127000000Y-81999001D03*
X142240000Y-107399001D03*
D14*
X127000000Y-79459001D03*
G04 #@! TD*
M02*
